<?xml version="1.0" encoding="UTF-8" standalone="no"?>
<svg width="267px" height="151px" viewBox="0 0 267 151" version="1.1" xmlns="http://www.w3.org/2000/svg" xmlns:xlink="http://www.w3.org/1999/xlink" xmlns:sketch="http://www.bohemiancoding.com/sketch/ns">
    <!-- Generator: Sketch 3.0.4 (8053) - http://www.bohemiancoding.com/sketch -->
    <title>connected_cloud</title>
    <desc>Created with Sketch.</desc>
    <defs>
        <path id="path-1" d="M0.06,0.432 L267.023,0.432 L267.023,150.94 L0.06,150.94 L0.06,0.432 Z"></path>
    </defs>
    <g id="Page-1" stroke="none" stroke-width="1" fill="none" fill-rule="evenodd" sketch:type="MSPage">
        <g id="connected_cloud" sketch:type="MSLayerGroup">
            <g id="Group-3">
                <mask id="mask-2" sketch:name="Clip 2" fill="white">
                    <use xlink:href="#path-1"></use>
                </mask>
                <g id="Clip-2"></g>
                <path d="M92.51,107.804 C98.003,109.797 98.003,109.797 98.923,107.099 C96.661,107.348 94.586,107.576 92.51,107.804 L92.51,107.804 Z M80.211,104.467 C82.264,106.176 83.573,107.266 84.54,108.071 C85.295,107.63 86.09,107.166 87.002,106.634 C86.275,106.3 85.81,106.086 85.055,105.738 C88.494,105.278 91.621,104.86 94.557,104.467 L80.211,104.467 L80.211,104.467 Z M178.317,76.404 C171.408,75.691 164.598,75.813 157.896,79.347 C164.984,78.326 171.65,77.365 178.317,76.404 L178.317,76.404 Z M62.089,104.188 C62.087,104.597 62.085,105.005 62.083,105.414 C77.033,104.308 91.983,103.202 106.933,102.096 C106.921,101.886 106.91,101.677 106.898,101.467 C91.962,102.374 77.025,103.281 62.089,104.188 L62.089,104.188 Z M177.931,50.039 C175.827,51.041 174.574,51.488 173.493,52.196 C172.427,52.894 170.639,54.007 170.75,54.673 C170.984,56.067 171.971,57.919 173.159,58.459 C176.734,60.086 180.553,61.173 184.278,62.471 C174.533,56.839 173.742,55.615 177.931,50.039 L177.931,50.039 Z M213.337,38.826 C210.146,40.809 207.411,42.509 204.434,44.359 C213.506,46.904 222.493,46.981 226.818,44.337 C220.72,45.957 216.087,44.953 213.337,38.826 L213.337,38.826 Z M21.481,126.574 C17.175,125.175 16.452,125.259 14.279,127.408 C19.387,127.392 22.125,130.375 20.266,134.67 C18.702,138.282 20.107,140.458 22.852,141.663 C26.374,143.21 30.213,144.58 33.998,144.844 C38.2,145.137 41.472,142.597 43.163,138.552 C44.711,134.851 43.03,130.973 39.442,129.768 C37.186,129.01 34.947,129.098 33.846,131.444 C32.738,133.805 33.394,135.925 35.943,137.267 C34.737,136.868 33.517,136.355 32.972,135.44 C31.104,132.304 33.257,128.915 37.196,128.177 C37.798,128.064 40.026,129.733 39.322,126.992 C40.196,127.498 41.07,128.004 41.707,128.373 C42.575,126.404 43.123,124.388 44.247,122.773 C46.577,119.425 51.077,118.824 53.58,121.56 C54.46,122.521 54.843,124.345 54.701,125.696 C54.598,126.669 53.249,127.511 52.182,128.722 C52.456,126.473 53.182,124.319 52.664,123.961 C51.581,123.21 49.679,122.921 48.419,123.348 C47.144,123.779 45.819,125.113 45.249,126.381 C43.314,130.681 45.5,135.359 50.026,137.233 C57.419,140.294 65.568,136.933 68.438,129.484 C70.565,123.964 70.397,118.281 67.718,113.102 C66.429,110.609 63.849,108.655 61.519,106.904 C60.772,106.343 58.901,107.088 57.667,107.557 C57.468,107.633 57.913,109.4 58.06,110.385 C57.161,109.87 56.026,108.598 56.263,108.245 C57.168,106.894 58.514,105.838 59.927,104.442 C57.511,98.801 52.945,95.22 46.463,94.731 C37.966,94.091 30.514,96.196 26.546,103.887 C25.842,103.283 25.142,102.16 24.329,102.071 C19.735,101.568 16.829,105.535 15.313,114.084 C6.508,115.986 1.97,120.874 2.007,128.417 C2.038,134.69 8.06,139.659 14.177,138.46 C18.016,137.708 20.358,134.526 19.107,131.182 C18.689,130.066 17.033,128.976 15.791,128.763 C14.999,128.627 13.411,129.975 13.134,130.934 C12.881,131.808 13.914,133.053 14.381,134.135 C14.105,134.377 13.829,134.619 13.553,134.861 C12.507,133.698 10.849,132.676 10.541,131.343 C9.873,128.446 10.543,125.632 13.292,123.792 C13.394,123.723 13.656,123.893 13.829,123.947 C13.312,124.769 12.803,125.579 12.018,126.826 C15.55,125.06 18.524,123.195 21.481,126.574 L21.481,126.574 Z M68.276,139.175 C66.489,140.153 64.701,141.131 63.162,141.974 C68.152,142.307 70.225,141.002 71.983,136.183 C73.558,131.865 77.08,130.852 80.064,133.858 C78.192,133.993 75.486,133.428 74.644,134.43 C73.388,135.923 73.154,138.51 73.069,140.655 C73.026,141.763 74.089,143.049 74.912,144.036 C80.71,150.987 92.171,150.4 98.962,142.86 C103.694,137.606 103.21,132.34 97.567,128.154 C98.866,123.735 98.368,119.596 95.012,116.211 C91.732,112.904 87.926,111.279 83.028,113.958 C84.774,111.208 84.376,109.424 81.984,107.613 C77.78,104.429 71.335,105.208 67.213,109.545 C70.895,114.436 71.799,120.048 70.806,126.023 C69.779,132.203 66.366,136.646 60.425,139.184 C60.585,139.579 60.746,139.974 60.906,140.37 C63.363,139.971 65.82,139.573 68.276,139.175 L68.276,139.175 Z M249.086,42.552 C250.353,40.623 250.612,38.534 248.673,37.116 C247.642,36.363 245.701,36.031 244.517,36.462 C240.894,37.779 239.382,42.496 240.947,46.525 C242.655,50.924 245.803,52.53 249.967,51.229 C250.939,50.925 252.038,50.711 253.028,50.841 C257.057,51.371 259.958,49.223 260.455,45.068 C260.607,43.79 260.478,42.478 260.478,41.181 C260.827,41.353 261.176,41.525 261.525,41.697 C262.742,39.784 264.914,37.905 264.984,35.95 C265.147,31.425 262.344,28.478 257.963,27.45 C257.252,20.919 252.975,17.248 247.469,18.495 C244.554,19.155 241.664,20.109 238.949,21.342 C238.252,21.658 237.819,23.619 238.019,24.683 C239.869,34.536 232.264,45.618 222.468,47.04 C220.711,47.295 218.907,47.227 217.125,47.309 C217.121,47.602 217.116,47.895 217.112,48.188 C220.341,48.188 223.64,48.612 226.786,48.101 C233.626,46.988 235.615,41.159 238.038,35.761 C239.54,32.414 241.001,28.868 243.312,26.107 C246.669,22.095 251.833,23.384 253.805,28.241 C254.027,28.788 254.348,29.294 254.624,29.819 C253.113,30.695 251.603,31.571 250.092,32.448 C249.894,32.167 249.696,31.887 249.498,31.607 C252.31,31.326 253.136,29.767 252.234,27.382 C251.468,25.356 248.241,24.508 246.008,25.586 C242.772,27.149 239.483,33.333 239.822,37.655 C241.246,36.771 242.451,35.819 243.813,35.22 C246.458,34.057 248.802,34.61 250.301,37.189 C251.496,39.242 251.827,41.297 249.086,42.552 L249.086,42.552 Z M195.164,42.743 C194.842,43.313 194.52,43.883 193.888,45.004 C197.996,43.61 201.554,42.403 205.112,41.196 C201.375,39.557 199.438,37.334 199.917,32.799 C198.1,33.599 196.802,34.17 195.504,34.741 C192.093,33.494 190.225,30.613 188.471,27.761 C186.654,24.806 187.887,20.688 190.875,19.059 C192.925,17.942 194.77,17.905 195.67,20.593 C191.619,18.777 188.704,20.914 189.127,25.39 C189.494,29.276 192.186,31.781 196.246,32.017 C201.561,32.325 207.634,28.241 209.036,23.418 C210.521,18.305 207.743,12.821 202.084,9.697 C203.613,10.193 205.432,10.32 206.622,11.251 C211.646,15.177 212.187,23.325 207.791,28.113 C206.44,29.584 204.685,30.709 203.031,31.873 C200.311,33.787 200.284,37.364 203.389,38.245 C205.495,38.842 208.12,37.986 210.392,37.35 C210.931,37.198 211.223,35.3 211.132,34.249 C211.102,33.894 209.535,33.672 208.671,33.389 C208.712,33.079 208.752,32.768 208.793,32.458 C210.581,32.699 212.368,32.939 214.47,33.223 C218.198,29.793 220.559,29.601 222.537,32.876 C219.118,31.142 216.397,31.837 215.118,34.77 C213.401,38.708 216.58,43.39 221.24,43.592 C226.946,43.839 231.529,41.842 234.429,36.638 C237.524,31.085 237.904,25.6 234.589,19.947 C233.497,18.084 233.201,15.744 232.063,13.921 C230.959,12.151 229.286,10.721 227.776,9.229 C227.023,8.484 225.7,8.12 225.283,7.266 C223.707,4.044 220.896,2.373 217.745,2.799 C214.286,3.266 210.998,4.99 207.106,6.353 C205.449,4.801 202.867,3.737 199.617,5.362 C200.271,6.72 200.827,7.875 201.383,9.029 C196.392,3.568 190.381,1.035 182.993,2.897 C176.027,4.652 169.88,7.573 167.658,15.146 C156.683,12.334 149.721,18.239 150.78,28.994 C150.86,29.812 150.067,30.696 149.757,31.576 C149.09,33.477 147.752,35.502 148.011,37.283 C148.365,39.71 150.372,41.261 153.218,41.375 C154.178,41.413 155.432,42.118 155.985,42.913 C158.515,46.548 160.861,47.826 165.07,46.858 C167.721,46.249 169.884,46.278 172.478,47.615 C177.724,50.32 185.309,47.254 186.48,42.207 C186.761,40.997 186.047,39.031 185.099,38.232 C184.365,37.612 182.26,37.843 181.317,38.495 C180.594,38.996 180.733,40.743 180.352,42.602 C182.297,41.856 183.212,41.506 184.126,41.155 C184.413,41.327 184.7,41.5 184.987,41.672 C184.35,43.076 183.712,44.48 183.075,45.884 C182.732,45.763 182.389,45.642 182.046,45.521 C182.189,44.714 182.332,43.908 182.473,43.108 C179.667,42.518 178.394,41.307 179.348,39.552 C180.1,38.169 181.869,36.913 183.415,36.537 C184.436,36.288 186.529,37.409 186.962,38.421 C187.76,40.29 187.69,42.529 187.999,44.735 C188.316,44.633 188.867,44.457 189.419,44.28 C191.334,43.768 193.249,43.256 195.164,42.743 L195.164,42.743 Z M198.914,67.61 C196.206,66.246 193.497,64.882 190.789,63.519 C195.687,68.167 195.736,68.754 190.87,73.804 C193.332,72.952 195.303,72.271 197.273,71.589 C195.993,72.388 194.806,73.459 193.416,73.934 C189.853,75.152 186.2,76.106 182.584,77.165 C185.953,77.036 189.247,76.548 192.507,75.889 C194.49,75.488 196.488,74.993 198.361,74.245 C204.342,71.856 204.95,68.525 200.184,64.346 C199.45,63.702 198.296,63.54 197.341,63.143 C194.261,61.865 191.013,60.877 188.145,59.229 C183.831,56.748 183.895,53.321 188.147,50.675 C190.438,49.249 192.96,48.194 195.378,46.973 C195.293,46.792 195.208,46.612 195.122,46.431 C191.385,47.92 187.648,49.409 183.911,50.898 C184.034,50.479 184.156,50.059 184.5,48.882 C182.186,50.271 180.287,51.212 178.62,52.463 C176.537,54.026 176.451,56.323 178.636,57.461 C181.913,59.168 185.574,60.136 189.072,61.418 C192.934,62.558 196.807,63.68 198.914,67.61 L198.914,67.61 Z M221.524,58.158 C220.948,57.683 220.373,57.207 219.798,56.731 C219.713,57.777 219.171,59.119 219.623,59.817 C221.482,62.687 227.98,61.903 229.494,58.811 C230.092,57.59 231.343,56.555 231.553,55.31 C231.826,53.686 231.359,51.937 231.211,50.242 C228.416,50.509 225.62,50.777 222.824,51.045 C219.48,50.239 216.137,49.433 213.628,48.828 C215.898,50.725 218.665,52.882 221.204,55.28 C221.739,55.786 221.439,57.176 221.524,58.158 L221.524,58.158 Z M93.461,111.595 C93.686,112.221 93.911,112.847 94.135,113.473 C98.144,116.751 100.056,120.865 99.323,126.115 C99.221,126.845 99.452,127.768 99.853,128.395 C100.987,130.169 102.289,131.837 103.524,133.547 C103.407,135.513 103.29,137.48 103.172,139.475 C108.006,138.719 110.902,135.461 109.807,131.951 C109.554,131.139 108.525,130.446 107.69,130.005 C107.408,129.855 106.626,130.65 106.072,131.013 C106.548,131.717 107.024,132.422 108.073,133.974 C106.225,133.825 104.841,133.713 103.457,133.602 C104.26,131.629 104.708,129.347 106.033,127.829 C106.605,127.174 109.644,127.544 110.402,128.435 C111.654,129.907 112.401,132.153 112.519,134.122 C112.597,135.428 111.26,136.855 110.45,138.162 C110.002,138.884 109.336,139.471 108.471,140.459 C111.203,140.103 113.4,139.816 115.597,139.53 C115.626,139.664 115.654,139.797 115.683,139.931 C114.221,140.338 112.76,140.745 111.296,141.152 C117.159,141.627 121.295,139.704 123.68,135.209 C126.186,130.485 125.708,125.992 122.32,121.822 C121.959,121.378 121.575,120.87 121.445,120.332 C120.117,114.829 119.873,114.624 114.322,114.944 C113.93,113.748 113.624,112.469 113.103,111.284 C111.146,106.84 104.495,105.095 101.782,108.5 C100.865,109.65 100.803,111.817 101.06,113.405 C101.165,114.055 103.624,115.105 104.176,114.733 C105.183,114.053 105.567,112.45 106.211,111.232 C108.316,113.058 107.29,114.668 105.547,115.682 C103.096,117.107 100.588,116.399 99.678,113.795 C98.337,109.957 95.333,111.192 92.785,110.838 C92.926,111.007 93.065,111.179 93.21,111.345 C93.287,111.433 93.377,111.512 93.461,111.595 L93.461,111.595 Z M143.123,93.98 C140.333,91.363 138.678,88.542 142.592,84.523 C140.461,85.179 139.445,85.491 138.429,85.804 C138.634,85.303 138.839,84.803 139.133,84.084 C137.501,84.632 136.081,85.109 134.661,85.586 C132.243,85.012 130.61,86.684 131.137,89.442 C131.663,92.189 133.214,94.898 130.998,97.579 C131.435,97.817 131.871,98.055 132.308,98.292 C132.182,98.601 132.046,98.907 131.937,99.222 C131.909,99.304 131.965,99.416 132.019,99.729 C134.85,98.755 137.644,97.778 140.451,96.835 C142.068,96.291 142.361,95.331 141.468,93.931 C142.044,93.923 142.619,93.916 143.195,93.908 C143.502,96.275 142.146,97.392 140.12,98.014 C136.215,99.211 132.312,100.413 128.409,101.613 C128.467,101.875 128.525,102.137 128.584,102.399 C134.874,101.169 141.163,99.939 147.453,98.71 C147.491,98.223 147.529,97.736 147.567,97.249 C146.087,96.158 144.606,95.068 143.123,93.98 L143.123,93.98 Z M207.002,3.682 C211.594,2.537 215.036,1.617 218.513,0.861 C219.263,0.698 220.324,0.877 220.931,1.322 C224.944,4.267 228.996,7.185 232.741,10.45 C233.685,11.273 233.742,13.307 233.888,14.815 C234.183,17.864 236.231,19.678 239.117,18.991 C241.457,18.433 243.78,17.736 246.035,16.898 C251.637,14.813 258.113,18.419 259.352,24.269 C259.555,25.224 260.345,26.374 261.189,26.822 C268.099,30.493 268.963,36.792 263.288,41.958 C262.561,42.619 262.345,44.049 262.243,45.155 C261.747,50.577 258.127,53.41 252.716,52.493 C252.249,52.414 251.695,52.185 251.317,52.345 C245.072,55.002 241.272,52.066 238.568,46.519 C236.943,47.699 235.52,48.732 234.138,49.735 C235.167,56.888 230.101,63.421 223.679,63.361 C217.765,63.305 215.682,59.867 218.755,54.215 C216.932,53.244 215.199,51.863 213.241,51.361 C206.004,49.508 198.747,49.6 191.704,52.325 C190.494,52.793 189.58,54.025 188.53,54.904 C189.567,55.805 190.472,56.985 191.668,57.553 C195.018,59.143 198.595,60.272 201.888,61.962 C208.01,65.104 208.885,71.086 203.068,74.636 C198.548,77.394 192.934,78.752 187.621,79.734 C175.28,82.016 162.809,83.589 150.435,85.711 C148.137,86.105 146.048,87.72 143.863,88.772 C145.472,90.41 147.158,91.982 148.668,93.708 C149.925,95.143 150.975,96.758 152.117,98.294 C150.655,99.38 149.311,101.171 147.712,101.438 C137.819,103.09 127.871,104.417 117.935,105.805 C116.188,106.049 114.409,106.07 112.101,106.231 C114.384,109.51 115.397,112.996 119.759,113.479 C120.962,113.612 122.364,115.267 122.997,116.556 C124.44,119.496 125.561,122.608 126.636,125.712 C128.563,131.271 126.633,136.021 122.641,139.726 C118.572,143.503 113.421,144.488 108.233,142.337 C105.068,141.025 102.933,141.399 100.654,143.898 C91.425,154.024 79.014,153.298 70.827,141.873 C65.901,145.353 60.842,143.705 55.569,142.15 C50.667,140.705 45.916,141.988 41.391,144.436 C33.435,148.74 25.388,147.327 19.088,140.915 C18.48,140.295 17.292,139.751 16.493,139.886 C8.332,141.266 1.87,138.035 0.393,131.68 C-1.448,123.761 3.368,115.178 10.954,113.269 C12.913,112.776 13.703,112.095 13.954,110.039 C14.695,103.97 18.63,100.546 24.713,100.098 C25.806,100.018 27.136,99.602 27.879,98.862 C36.409,90.358 53.97,88.86 61.498,102.78 C72.003,101.844 82.347,100.7 92.723,100.079 C99.165,99.693 105.672,100.408 112.118,100.051 C116.853,99.788 121.561,98.71 126.234,97.763 C129.387,97.124 130.361,94.98 129.745,91.819 C128.523,85.555 129.733,83.756 135.889,81.955 C144.143,79.539 152.325,76.836 160.664,74.762 C164.764,73.742 169.149,73.884 173.401,73.454 C177.657,73.023 181.966,72.809 186.133,71.936 C187.839,71.578 189.234,69.74 190.771,68.576 C189.207,67.604 187.751,66.323 186.055,65.729 C183.125,64.704 180.043,64.117 177.03,63.325 C175.873,63.021 174.703,62.731 173.585,62.314 C166.379,59.627 165.295,54.596 170.819,48.551 C169.446,48.551 168.041,48.36 166.706,48.585 C161.964,49.386 157.579,49.473 154.779,44.506 C154.401,43.837 153.288,43.392 152.437,43.211 C146.989,42.051 144.709,37.494 147.053,32.334 C147.885,30.502 148.774,29.159 148.377,26.508 C147.216,18.749 155.353,11.607 163.51,12.519 C165.603,12.753 166.624,12.491 167.73,10.517 C172.542,1.928 186.766,-2.124 195.66,2.144 C197.181,2.874 199.193,2.553 200.968,2.789 C203.356,3.106 205.736,3.493 207.002,3.682 L207.002,3.682 Z" id="Fill-1" fill="#2F2F2E" sketch:type="MSShapeGroup" mask="url(#mask-2)"></path>
            </g>
            <path d="M53.081,109.171 C49.64,106.414 44.48,105.802 41.379,107.604 C44.916,108.078 49.346,108.671 53.081,109.171 L53.081,109.171 Z M48.14,127.574 C48.052,131.636 50.186,132.548 52.686,132.907 C56.155,133.406 58.515,132.058 59.939,128.98 C54.338,133.426 50.267,133.155 48.14,127.574 L48.14,127.574 Z M31.358,110.327 C31.358,109.984 31.359,109.642 31.36,109.299 C29.365,109.647 27.159,109.566 25.416,110.425 C20.764,112.718 20.341,117.221 20.706,121.793 C19.022,121.983 17.775,122.123 16.528,122.264 C16.549,122.373 16.57,122.481 16.591,122.59 L20.712,122.59 C23.267,111.585 24.639,110.024 31.358,110.327 L31.358,110.327 Z M21.481,126.574 C18.524,123.195 15.55,125.06 12.018,126.826 C12.803,125.579 13.312,124.769 13.829,123.947 C13.656,123.893 13.394,123.723 13.292,123.792 C10.543,125.632 9.873,128.446 10.541,131.343 C10.849,132.676 12.507,133.698 13.553,134.861 C13.829,134.619 14.105,134.377 14.381,134.135 C13.914,133.053 12.881,131.808 13.134,130.934 C13.411,129.975 14.999,128.627 15.791,128.763 C17.033,128.976 18.689,130.066 19.107,131.182 C20.358,134.526 18.016,137.708 14.177,138.46 C8.06,139.659 2.038,134.69 2.007,128.417 C1.97,120.874 6.508,115.986 15.313,114.084 C16.829,105.535 19.735,101.568 24.329,102.071 C25.142,102.16 25.842,103.283 26.546,103.887 C30.514,96.196 37.966,94.091 46.463,94.731 C52.945,95.22 57.511,98.801 59.927,104.442 C58.514,105.838 57.168,106.894 56.263,108.245 C56.026,108.598 57.161,109.87 58.06,110.385 C57.913,109.4 57.468,107.633 57.667,107.557 C58.901,107.088 60.772,106.343 61.519,106.904 C63.849,108.655 66.429,110.609 67.718,113.102 C70.397,118.281 70.565,123.964 68.438,129.484 C65.568,136.933 57.419,140.294 50.026,137.233 C45.5,135.359 43.314,130.681 45.249,126.381 C45.819,125.113 47.144,123.779 48.419,123.348 C49.679,122.921 51.581,123.21 52.664,123.961 C53.182,124.319 52.456,126.473 52.182,128.722 C53.249,127.511 54.598,126.669 54.701,125.696 C54.843,124.345 54.46,122.521 53.58,121.56 C51.077,118.824 46.577,119.425 44.247,122.773 C43.123,124.388 42.575,126.404 41.707,128.373 C41.07,128.004 40.196,127.498 39.322,126.992 C33.739,124.579 28.483,124.54 23.774,129.565 C22.888,128.41 22.185,127.492 21.481,126.574 L21.481,126.574 Z" id="Fill-4" fill="#FFFFFF" sketch:type="MSShapeGroup"></path>
            <g id="Group-8" fill="#FFFFFF" sketch:type="MSShapeGroup">
                <path d="M176.589,10.846 C182.535,8.616 188.518,7.03 194.753,9.785 C188.457,5.984 182.469,7.492 176.589,10.846 L176.589,10.846 Z M189.419,44.28 C188.867,44.457 188.316,44.633 187.999,44.735 C187.69,42.529 187.76,40.29 186.962,38.421 C186.529,37.409 184.436,36.288 183.415,36.537 C181.869,36.913 180.1,38.169 179.348,39.552 C178.394,41.307 179.667,42.518 182.473,43.108 C182.332,43.908 182.189,44.714 182.046,45.521 C182.389,45.642 182.732,45.763 183.075,45.884 C183.712,44.48 184.35,43.076 184.987,41.672 C184.7,41.5 184.413,41.327 184.126,41.155 C183.212,41.506 182.297,41.856 180.352,42.602 C180.733,40.743 180.594,38.996 181.317,38.495 C182.26,37.843 184.365,37.612 185.099,38.232 C186.047,39.031 186.761,40.997 186.48,42.207 C185.309,47.254 177.724,50.32 172.478,47.615 C169.884,46.278 167.721,46.249 165.07,46.858 C160.861,47.826 158.515,46.548 155.985,42.913 C155.432,42.118 154.178,41.413 153.218,41.375 C150.372,41.261 148.365,39.71 148.011,37.283 C147.752,35.502 149.09,33.477 149.757,31.576 C150.067,30.696 150.86,29.812 150.78,28.994 C149.721,18.239 156.683,12.334 167.658,15.146 C169.88,7.573 176.027,4.652 182.993,2.897 C190.381,1.035 196.392,3.568 201.383,9.029 C201.616,9.252 201.85,9.474 202.084,9.697 C207.743,12.821 210.521,18.305 209.036,23.418 C207.634,28.241 201.561,32.325 196.246,32.017 C192.186,31.781 189.494,29.276 189.127,25.39 C188.704,20.914 191.619,18.777 195.67,20.593 L195.606,20.525 L195.606,24.255 C194.427,24.149 193.624,24.077 192.82,24.005 C192.803,24.359 192.786,24.714 192.769,25.069 C193.82,25.069 195.231,25.506 195.858,24.991 C198.198,23.07 198.765,20.745 196.323,18.353 L196.388,18.439 C195.191,15.26 192.442,14.771 189.699,15.136 C187.186,15.471 184.433,16.122 184.091,19.52 C182.025,25.064 182.968,27.808 186.985,31.913 C191.101,36.12 193.156,39.567 189.419,44.28 L189.419,44.28 Z" id="Fill-5"></path>
                <path d="M80.792,143.276 C85.142,144.493 87.938,143.6 90.219,140.427 C92.231,137.629 92.415,135.174 90.811,132.536 C92.054,139.342 88.631,142.957 80.792,143.276 L80.792,143.276 Z M68.276,139.175 C65.82,139.573 63.363,139.971 60.906,140.37 C60.746,139.974 60.585,139.579 60.425,139.184 C66.366,136.646 69.779,132.203 70.806,126.023 C71.799,120.048 70.895,114.436 67.213,109.545 C71.335,105.208 77.78,104.429 81.984,107.613 C84.376,109.424 84.774,111.208 83.028,113.958 C87.926,111.279 91.732,112.904 95.012,116.211 C98.368,119.596 98.866,123.735 97.567,128.154 C103.21,132.34 103.694,137.606 98.962,142.86 C92.171,150.4 80.71,150.987 74.912,144.036 C74.089,143.049 73.026,141.763 73.069,140.655 C73.154,138.51 73.388,135.923 74.644,134.43 C75.486,133.428 78.192,133.993 80.063,133.856 C80.21,134.546 80.359,135.239 80.508,135.932 C80.401,136.546 80.294,137.16 80.186,137.774 C80.559,137.877 80.932,137.98 81.305,138.084 C81.68,136.575 82.784,134.714 82.263,133.639 C81.435,131.926 79.716,130.011 78.01,129.562 C76.696,129.216 74.824,130.99 73.199,131.821 C71.558,134.272 69.917,136.724 68.276,139.175 L68.276,139.175 Z" id="Fill-7"></path>
            </g>
            <path d="M202.084,9.697 C201.85,9.474 201.616,9.252 201.383,9.029 C200.827,7.875 200.271,6.72 199.617,5.362 C202.867,3.737 205.449,4.801 207.106,6.353 C210.998,4.99 214.286,3.266 217.745,2.799 C220.896,2.373 223.707,4.044 225.283,7.266 C225.7,8.12 227.023,8.484 227.776,9.229 C229.286,10.721 230.959,12.151 232.063,13.921 C233.201,15.744 233.497,18.084 234.589,19.947 C237.904,25.6 237.524,31.085 234.429,36.638 C231.529,41.842 226.946,43.839 221.24,43.592 C216.58,43.39 213.401,38.708 215.118,34.77 C216.397,31.837 219.118,31.142 222.537,32.876 C220.559,29.601 218.198,29.793 214.47,33.223 C212.368,32.939 210.581,32.699 208.793,32.458 C208.752,32.768 208.712,33.079 208.671,33.389 C209.535,33.672 211.102,33.894 211.132,34.249 C211.223,35.3 210.931,37.198 210.392,37.35 C208.12,37.986 205.495,38.842 203.389,38.245 C200.284,37.364 200.311,33.787 203.031,31.873 C204.685,30.709 206.44,29.584 207.791,28.113 C212.187,23.325 211.646,15.177 206.622,11.251 C205.432,10.32 203.613,10.193 202.084,9.697" id="Fill-9" fill="#FFFFFF" sketch:type="MSShapeGroup"></path>
            <path d="M106.211,111.232 C105.567,112.45 105.183,114.053 104.176,114.733 C103.624,115.105 101.165,114.055 101.06,113.405 C100.803,111.817 100.865,109.65 101.782,108.5 C104.495,105.095 111.146,106.84 113.103,111.284 C113.624,112.469 113.93,113.748 114.322,114.944 C119.873,114.624 120.117,114.829 121.445,120.332 C121.575,120.87 121.959,121.378 122.32,121.822 C125.708,125.992 126.186,130.485 123.68,135.209 C121.295,139.704 117.159,141.627 111.296,141.152 C112.76,140.745 114.221,140.338 115.683,139.931 C115.654,139.797 115.626,139.664 115.597,139.53 C113.4,139.816 111.203,140.103 108.471,140.459 C109.336,139.471 110.002,138.884 110.45,138.162 C111.26,136.855 112.597,135.428 112.519,134.122 C112.401,132.153 111.654,129.907 110.402,128.435 C109.644,127.544 106.605,127.174 106.033,127.829 C104.708,129.347 104.26,131.629 103.457,133.602 L103.524,133.546 C102.289,131.837 100.987,130.169 99.853,128.395 C99.452,127.768 99.221,126.845 99.323,126.115 C100.056,120.865 98.144,116.751 94.135,113.473 C95.695,114.647 97.279,115.791 98.809,117.004 C101.249,118.937 103.707,120.337 106.552,117.718 C108.241,116.279 109.774,114.648 108.507,112.306 C107.937,111.253 106.65,110.588 105.688,109.747 C105.486,110.049 105.285,110.35 105.083,110.652 C105.459,110.846 105.835,111.039 106.211,111.232" id="Fill-10" fill="#FFFFFF" sketch:type="MSShapeGroup"></path>
            <path d="M254.624,29.819 C254.348,29.294 254.027,28.788 253.805,28.241 C251.833,23.384 246.669,22.095 243.312,26.107 C241.001,28.868 239.54,32.414 238.038,35.761 C235.615,41.159 233.626,46.988 226.786,48.101 C223.64,48.612 220.341,48.188 217.112,48.188 C217.116,47.895 217.121,47.602 217.125,47.309 C218.907,47.227 220.711,47.295 222.468,47.04 C232.264,45.618 239.869,34.536 238.019,24.683 C237.819,23.619 238.252,21.658 238.949,21.342 C241.664,20.109 244.554,19.155 247.469,18.495 C252.975,17.248 257.252,20.919 257.963,27.45 C262.344,28.478 265.147,31.425 264.984,35.95 C264.914,37.905 262.742,39.784 261.525,41.697 C261.176,41.525 260.827,41.353 260.478,41.181 C260.478,42.478 260.607,43.79 260.455,45.068 C259.958,49.223 257.057,51.371 253.028,50.841 C252.038,50.711 250.939,50.925 249.967,51.229 C245.803,52.53 242.655,50.924 240.947,46.525 C239.382,42.496 240.894,37.779 244.517,36.462 C245.701,36.031 247.642,36.363 248.673,37.116 C250.612,38.534 250.353,40.623 249.096,42.543 C248.315,41.833 247.524,41.132 245.842,39.641 C245.933,41.474 245.627,42.819 246.122,43.728 C247.244,45.788 249.043,46.785 251.551,45.946 C258.653,43.57 260.107,36.025 254.624,29.819" id="Fill-11" fill="#FFFFFF" sketch:type="MSShapeGroup"></path>
            <path d="M21.481,126.574 C22.185,127.492 22.888,128.41 23.774,129.565 C28.483,124.54 33.739,124.579 39.322,126.992 C40.026,129.733 37.798,128.064 37.196,128.177 C33.257,128.915 31.104,132.304 32.972,135.44 C33.517,136.355 34.737,136.868 35.943,137.267 C33.394,135.925 32.738,133.805 33.846,131.444 C34.947,129.098 37.186,129.01 39.442,129.768 C43.03,130.973 44.711,134.851 43.163,138.552 C41.472,142.597 38.2,145.137 33.998,144.844 C30.213,144.58 26.374,143.21 22.852,141.663 C20.107,140.458 18.702,138.282 20.266,134.67 C22.125,130.375 19.387,127.392 14.279,127.408 C16.452,125.259 17.175,125.175 21.481,126.574" id="Fill-12" fill="#FFFFFF" sketch:type="MSShapeGroup"></path>
            <path d="M254.624,29.819 C260.107,36.025 258.653,43.57 251.551,45.946 C249.043,46.785 247.244,45.788 246.122,43.728 C245.627,42.819 245.933,41.474 245.842,39.641 C247.524,41.132 248.315,41.833 249.096,42.543 C251.827,41.297 251.496,39.242 250.301,37.189 C248.802,34.61 246.458,34.057 243.813,35.22 C242.451,35.819 241.246,36.771 239.822,37.655 C239.483,33.333 242.772,27.149 246.008,25.586 C248.241,24.508 251.468,25.356 252.234,27.382 C253.136,29.767 252.31,31.326 249.498,31.607 C249.696,31.887 249.894,32.167 250.092,32.448 C251.603,31.571 253.113,30.695 254.624,29.819" id="Fill-13" fill="#FFFFFF" sketch:type="MSShapeGroup"></path>
            <path d="M189.419,44.28 C193.156,39.567 191.101,36.12 186.985,31.913 C182.968,27.808 182.025,25.064 184.091,19.52 C188.593,15.035 191.358,14.792 196.388,18.439 L196.323,18.353 C196.542,19.232 196.76,20.112 197.026,21.183 C196.358,20.873 195.982,20.699 195.606,20.525 L195.67,20.593 C194.77,17.905 192.925,17.942 190.875,19.059 C187.887,20.688 186.654,24.806 188.471,27.761 C190.225,30.613 192.093,33.494 195.504,34.741 C198.508,37.541 197.13,40.155 195.164,42.743 C193.249,43.256 191.334,43.768 189.419,44.28" id="Fill-14" fill="#FFFFFF" sketch:type="MSShapeGroup"></path>
            <path d="M183.911,50.898 C187.648,49.409 191.385,47.92 195.122,46.431 C195.208,46.612 195.293,46.792 195.378,46.973 C192.96,48.194 190.438,49.249 188.147,50.675 C183.895,53.321 183.831,56.748 188.145,59.229 C191.013,60.877 194.261,61.865 197.341,63.143 C198.296,63.54 199.45,63.702 200.184,64.346 C204.95,68.525 204.342,71.856 198.361,74.245 C196.488,74.993 194.49,75.488 192.507,75.889 C189.247,76.548 185.953,77.036 182.584,77.165 C186.2,76.106 189.853,75.152 193.416,73.934 C194.806,73.459 195.993,72.388 197.273,71.589 C197.82,70.262 198.367,68.936 198.914,67.61 C196.807,63.68 192.934,62.558 189.073,61.418 C187.835,60.734 186.581,60.076 185.361,59.36 C180.687,56.615 180.397,54.888 183.911,50.898" id="Fill-15" fill="#FFFFFF" sketch:type="MSShapeGroup"></path>
            <path d="M222.824,51.045 C225.62,50.777 228.416,50.509 231.211,50.242 C231.359,51.937 231.826,53.686 231.553,55.31 C231.343,56.555 230.092,57.59 229.494,58.811 C227.98,61.903 221.482,62.687 219.623,59.817 C219.171,59.119 219.713,57.777 219.798,56.731 C220.373,57.207 220.948,57.683 221.524,58.158 C223.034,60 224.96,59.803 226.052,58.181 C226.728,57.177 226.51,55.114 225.946,53.864 C225.418,52.693 223.904,51.967 222.824,51.045" id="Fill-16" fill="#FFFFFF" sketch:type="MSShapeGroup"></path>
            <path d="M213.337,38.826 C216.087,44.953 220.72,45.957 226.818,44.337 C222.493,46.981 213.506,46.904 204.434,44.359 C207.411,42.509 210.146,40.809 213.337,38.826" id="Fill-17" fill="#FFFFFF" sketch:type="MSShapeGroup"></path>
            <path d="M141.468,93.931 C142.361,95.331 142.068,96.291 140.451,96.835 C137.644,97.778 134.85,98.755 132.019,99.729 C131.965,99.416 131.909,99.304 131.937,99.222 C132.046,98.907 132.182,98.601 132.308,98.292 L132.234,98.346 C135.773,97.731 135.3,95.117 135.08,92.631 C134.876,90.321 134.67,88.01 134.464,85.7 L134.661,85.586 C136.081,85.109 137.501,84.632 139.133,84.084 C138.839,84.803 138.634,85.303 138.429,85.804 C135.297,88.405 135.39,90.017 138.801,92.213 C139.69,92.785 140.579,93.358 141.468,93.931" id="Fill-18" fill="#FFFFFF" sketch:type="MSShapeGroup"></path>
            <path d="M222.824,51.045 C223.904,51.967 225.418,52.693 225.946,53.864 C226.51,55.114 226.728,57.177 226.052,58.181 C224.96,59.803 223.034,60 221.524,58.158 C221.439,57.176 221.739,55.786 221.204,55.28 C218.665,52.882 215.898,50.725 213.628,48.828 C216.137,49.433 219.48,50.239 222.824,51.045" id="Fill-19" fill="#FFFFFF" sketch:type="MSShapeGroup"></path>
            <path d="M195.164,42.743 C197.13,40.155 198.508,37.541 195.504,34.741 C196.802,34.17 198.1,33.599 199.917,32.799 C199.438,37.334 201.375,39.557 205.112,41.196 C201.554,42.403 197.996,43.61 193.888,45.004 C194.52,43.883 194.842,43.313 195.164,42.743" id="Fill-20" fill="#FFFFFF" sketch:type="MSShapeGroup"></path>
            <path d="M177.931,50.039 C173.742,55.615 174.533,56.839 184.278,62.471 C180.553,61.173 176.734,60.086 173.159,58.459 C171.971,57.919 170.984,56.067 170.75,54.673 C170.639,54.007 172.427,52.894 173.493,52.196 C174.574,51.488 175.827,51.041 177.931,50.039" id="Fill-21" fill="#FFFFFF" sketch:type="MSShapeGroup"></path>
            <path d="M183.911,50.898 C180.397,54.888 180.687,56.615 185.361,59.36 C186.581,60.076 187.835,60.734 189.073,61.418 C185.574,60.136 181.913,59.168 178.636,57.461 C176.451,56.323 176.537,54.026 178.62,52.463 C180.287,51.212 182.186,50.271 184.5,48.882 C184.156,50.059 184.034,50.479 183.911,50.898" id="Fill-22" fill="#FFFFFF" sketch:type="MSShapeGroup"></path>
            <path d="M62.089,104.188 C77.025,103.281 91.962,102.374 106.898,101.467 C106.91,101.677 106.921,101.886 106.933,102.096 L62.083,105.414 C62.085,105.005 62.087,104.597 62.089,104.188" id="Fill-23" fill="#FFFFFF" sketch:type="MSShapeGroup"></path>
            <path d="M106.211,111.232 C105.835,111.039 105.459,110.846 105.083,110.652 C105.285,110.35 105.486,110.049 105.688,109.747 C106.65,110.588 107.937,111.253 108.507,112.306 C109.774,114.648 108.241,116.279 106.552,117.718 C103.014,118.429 100.131,117.615 97.761,114.639 C96.711,113.319 94.917,112.591 93.461,111.595 C93.377,111.512 93.287,111.433 93.21,111.345 C93.065,111.179 92.926,111.007 92.785,110.838 C95.333,111.192 98.337,109.957 99.678,113.795 C100.588,116.399 103.096,117.107 105.547,115.682 C107.29,114.668 108.316,113.058 106.211,111.232" id="Fill-24" fill="#FFFFFF" sketch:type="MSShapeGroup"></path>
            <path d="M143.126,93.977 C144.606,95.068 146.087,96.158 147.567,97.249 C147.529,97.736 147.491,98.223 147.453,98.71 C141.163,99.939 134.874,101.169 128.584,102.399 C128.525,102.137 128.467,101.875 128.409,101.613 C132.312,100.413 136.215,99.211 140.12,98.014 C142.146,97.392 143.502,96.275 143.193,93.91 C143.191,93.911 143.126,93.977 143.126,93.977" id="Fill-25" fill="#FFFFFF" sketch:type="MSShapeGroup"></path>
            <path d="M80.508,135.932 C80.359,135.239 80.21,134.546 80.063,133.856 C77.08,130.852 73.558,131.865 71.983,136.183 C70.225,141.002 68.152,142.307 63.162,141.974 C64.701,141.131 66.489,140.153 68.276,139.175 C69.917,136.724 71.558,134.272 73.199,131.82 C74.27,131.311 75.429,130.259 76.392,130.415 C77.967,130.67 79.653,131.457 80.807,132.538 C81.318,133.017 80.644,134.762 80.508,135.932" id="Fill-26" fill="#FFFFFF" sketch:type="MSShapeGroup"></path>
            <path d="M103.457,133.602 C104.841,133.713 106.225,133.825 108.073,133.974 C107.024,132.422 106.548,131.717 106.072,131.013 C106.626,130.65 107.408,129.855 107.69,130.005 C108.525,130.446 109.554,131.139 109.807,131.951 C110.902,135.461 108.006,138.719 103.172,139.475 C103.29,137.48 103.407,135.513 103.524,133.546 L103.457,133.602" id="Fill-27" fill="#FFFFFF" sketch:type="MSShapeGroup"></path>
            <path d="M198.914,67.61 C198.367,68.936 197.82,70.262 197.273,71.589 C195.303,72.271 193.332,72.952 190.87,73.804 C195.736,68.754 195.687,68.167 190.789,63.519 C193.497,64.882 196.206,66.246 198.914,67.61" id="Fill-28" fill="#FFFFFF" sketch:type="MSShapeGroup"></path>
            <path d="M141.468,93.931 C140.579,93.358 139.69,92.785 138.801,92.213 C135.39,90.017 135.297,88.405 138.429,85.804 C139.445,85.491 140.461,85.179 142.592,84.523 C138.678,88.542 140.333,91.363 143.124,93.978 C143.126,93.977 143.191,93.911 143.193,93.91 C142.619,93.916 142.044,93.923 141.468,93.931" id="Fill-29" fill="#FFFFFF" sketch:type="MSShapeGroup"></path>
            <path d="M134.661,85.586 L134.464,85.7 C134.206,87.568 133.345,89.609 133.822,91.265 C134.644,94.121 134.404,96.346 132.234,98.346 L132.308,98.292 C131.871,98.055 131.435,97.817 130.998,97.579 C133.214,94.898 131.663,92.189 131.137,89.442 C130.61,86.684 132.243,85.012 134.661,85.586" id="Fill-30" fill="#FFFFFF" sketch:type="MSShapeGroup"></path>
            <path d="M178.317,76.404 C171.65,77.365 164.984,78.326 157.896,79.347 C164.598,75.813 171.408,75.691 178.317,76.404" id="Fill-31" fill="#FFFFFF" sketch:type="MSShapeGroup"></path>
            <path d="M80.211,104.467 L94.557,104.467 C91.621,104.86 88.494,105.278 85.055,105.738 C85.81,106.086 86.275,106.3 87.002,106.634 C86.09,107.166 85.295,107.63 84.54,108.071 C83.573,107.266 82.264,106.176 80.211,104.467" id="Fill-32" fill="#FFFFFF" sketch:type="MSShapeGroup"></path>
            <path d="M92.51,107.804 C94.586,107.576 96.661,107.348 98.923,107.099 C98.003,109.797 98.003,109.797 92.51,107.804" id="Fill-33" fill="#FFFFFF" sketch:type="MSShapeGroup"></path>
            <path d="M93.461,111.595 C94.917,112.591 96.711,113.319 97.761,114.639 C100.131,117.615 103.014,118.429 106.552,117.718 C103.707,120.337 101.249,118.937 98.809,117.004 C97.279,115.791 95.695,114.647 94.135,113.473 C93.911,112.847 93.686,112.221 93.461,111.595" id="Fill-34" fill="#1A1918" sketch:type="MSShapeGroup"></path>
            <path d="M31.358,110.327 C24.639,110.024 23.267,111.585 20.712,122.59 L16.591,122.59 C16.57,122.481 16.549,122.373 16.528,122.264 C17.775,122.123 19.022,121.983 20.706,121.793 C20.341,117.221 20.764,112.718 25.416,110.425 C27.159,109.566 29.365,109.647 31.36,109.299 C31.359,109.642 31.358,109.984 31.358,110.327" id="Fill-35" fill="#1A1918" sketch:type="MSShapeGroup"></path>
            <path d="M48.14,127.574 C50.267,133.155 54.338,133.426 59.939,128.98 C58.515,132.058 56.155,133.406 52.686,132.907 C50.186,132.548 48.052,131.636 48.14,127.574" id="Fill-36" fill="#1A1918" sketch:type="MSShapeGroup"></path>
            <path d="M53.081,109.171 C49.346,108.671 44.916,108.078 41.379,107.604 C44.48,105.802 49.64,106.414 53.081,109.171" id="Fill-37" fill="#1A1918" sketch:type="MSShapeGroup"></path>
            <path d="M176.589,10.846 C182.469,7.492 188.457,5.984 194.753,9.785 C188.518,7.03 182.535,8.616 176.589,10.846" id="Fill-38" fill="#1A1918" sketch:type="MSShapeGroup"></path>
            <path d="M196.388,18.439 C191.358,14.792 188.593,15.035 184.091,19.52 C184.433,16.122 187.186,15.471 189.699,15.136 C192.442,14.771 195.191,15.26 196.388,18.439" id="Fill-39" fill="#1A1918" sketch:type="MSShapeGroup"></path>
            <path d="M195.606,20.525 C195.982,20.699 196.358,20.873 197.026,21.183 C196.76,20.112 196.542,19.232 196.323,18.353 C198.765,20.745 198.198,23.07 195.858,24.991 C195.231,25.506 193.82,25.069 192.769,25.069 C192.786,24.714 192.803,24.359 192.82,24.005 C193.624,24.077 194.427,24.149 195.606,24.255 L195.606,20.525" id="Fill-40" fill="#1A1918" sketch:type="MSShapeGroup"></path>
            <path d="M80.792,143.276 C88.631,142.957 92.054,139.342 90.811,132.536 C92.415,135.174 92.231,137.629 90.219,140.427 C87.938,143.6 85.142,144.493 80.792,143.276" id="Fill-41" fill="#1A1918" sketch:type="MSShapeGroup"></path>
            <path d="M80.508,135.932 C80.644,134.762 81.318,133.017 80.807,132.538 C79.653,131.457 77.967,130.67 76.392,130.415 C75.429,130.259 74.27,131.311 73.199,131.82 C74.824,130.99 76.696,129.216 78.01,129.562 C79.716,130.011 81.435,131.926 82.263,133.639 C82.784,134.714 81.68,136.575 81.305,138.084 C80.932,137.98 80.559,137.877 80.186,137.774 C80.294,137.16 80.401,136.546 80.508,135.932" id="Fill-42" fill="#1A1918" sketch:type="MSShapeGroup"></path>
            <path d="M132.234,98.346 C134.404,96.346 134.644,94.121 133.822,91.265 C133.345,89.609 134.206,87.568 134.464,85.7 C134.67,88.01 134.876,90.321 135.08,92.631 C135.3,95.117 135.773,97.731 132.234,98.346" id="Fill-43" fill="#1A1918" sketch:type="MSShapeGroup"></path>
        </g>
    </g>
</svg>