<?xml version="1.0" encoding="UTF-8" standalone="no"?>
<svg id='fat_cloud' width="134px" height="65px" viewBox="0 0 134 65" version="1.1" xmlns="http://www.w3.org/2000/svg" xmlns:xlink="http://www.w3.org/1999/xlink" xmlns:sketch="http://www.bohemiancoding.com/sketch/ns">
    <!-- Generator: Sketch 3.0.4 (8053) - http://www.bohemiancoding.com/sketch -->
    <title>fat_cloud</title>
    <desc>Created with Sketch.</desc>
    <defs>
        <path id="path-1" d="M0.06,0.095 L133.192,0.095 L133.192,64.94 L0.06,64.94 L0.06,0.095 Z"></path>
    </defs>
    <g id="Page-1" stroke="none" stroke-width="1" fill="none" fill-rule="evenodd" sketch:type="MSPage">
        <g id="fat_cloud" sketch:type="MSLayerGroup">
            <g id="Group-4">
                <mask id="mask-2" sketch:name="Clip 2" fill="white">
                    <use xlink:href="#path-1"></use>
                </mask>
                <g id="Clip-2"></g>
                <path d="M38.702,51.187 C38.563,50.892 38.424,50.598 38.284,50.303 C35.456,51.627 32.629,52.952 29.801,54.276 C29.943,54.577 30.084,54.877 30.226,55.177 C33.051,53.847 35.877,52.517 38.702,51.187 L38.702,51.187 Z M68.177,48.008 C65.883,46.207 64.145,44.841 62.132,43.26 C59.578,49.472 54.471,50.016 48.669,49.213 C55.229,49.592 61.863,52.551 68.177,48.008 L68.177,48.008 Z M84.277,49.711 C84.258,50.468 84.239,51.225 84.221,51.982 C79.604,59.16 72.102,58.847 64.864,59.416 C66.724,59.561 68.511,59.807 70.3,59.822 C78.812,59.892 86.528,58.11 91.408,50.222 C91.91,49.411 92.502,47.911 92.135,47.429 C89.935,44.536 90.73,41.873 92.486,39.076 C91.609,38.663 90.831,38.369 90.125,37.951 C87.455,36.37 86.113,32.284 87.3,28.744 C88.289,25.791 90.697,24.427 93.664,24.415 C97.378,24.4 97.72,27.467 98.378,30.135 C98.751,30.188 99.124,30.24 99.496,30.293 C98.503,31.189 97.58,32.696 96.498,32.82 C95.265,32.962 93.89,31.87 91.787,30.981 C94.207,30.513 95.5,30.468 96.543,29.934 C96.849,29.777 96.782,27.797 96.291,27.414 C95.289,26.63 93.847,25.886 92.65,25.976 C89.54,26.211 87.459,29.394 88.067,32.436 C88.934,36.782 93.15,38.96 98.485,37.778 C102.556,36.876 106.617,35.927 110.682,34.999 C109.079,35.91 107.576,37.229 105.854,37.647 C102.477,38.467 98.949,38.643 95.541,39.358 C92.906,39.91 91.72,41.986 92.316,44.48 C92.954,47.149 95.032,47.79 97.631,47.061 C98.13,46.921 98.792,47.356 99.378,47.525 C97.371,48.026 94.223,47.906 93.554,49.135 C90.67,54.436 86.523,57.976 81.161,60.425 C83.9,59.7 86.639,58.976 89.378,58.252 C89.158,58.648 88.938,59.045 88.548,59.751 C95.495,56.894 101.506,53.725 102.833,45.485 C103.358,42.223 106.886,41.036 110.048,42.494 L110.1,42.433 C104.855,43.386 102.879,45.44 103.775,49.007 C104.625,52.391 107.279,53.469 111.366,52.091 C114.693,55.594 118.395,55.632 122.248,52.33 C122.991,51.693 124.045,51.106 124.981,51.065 C127.867,50.936 129.866,49.57 130.636,46.931 C131.343,44.51 130.983,42.326 129.233,39.976 C127.597,37.778 125.651,36.023 123.932,34.027 C119.884,29.325 116.578,28.892 112.5,33.553 C111.966,34.164 111.218,34.589 110.569,35.1 C111.336,33.357 112.714,31.628 112.752,29.87 C112.853,25.329 113.004,20.618 111.932,16.271 C110.798,11.674 106.267,9.797 100.647,10.311 C94.862,1.79 85.197,-0.556 77.799,4.87 C75.976,6.207 74.527,7.66 71.822,7.083 C70.605,6.823 69.028,8.252 68.055,8.708 C70.388,11.765 72.703,14.193 74.278,17.031 C75.849,19.864 74.638,22.72 72.478,24.894 C70.279,27.108 67.482,27.713 64.506,26.652 C61.835,25.7 61.337,23.845 63.476,20.019 C62.433,24.518 64.067,26.402 67.295,25.691 C69.272,25.256 71.492,23.828 72.634,22.176 C74.369,19.667 73.321,16.865 71.532,14.521 C68.071,9.984 60.736,8.265 54.781,10.269 C53.163,10.814 51.142,10.94 49.504,10.508 C43.442,8.908 35.951,12.302 33.744,18.155 C32.981,20.179 32.142,21.356 29.885,22.149 C28.595,22.602 27.33,25.364 27.437,26.996 C27.572,29.063 27.225,30.476 26.124,32.173 C23.182,36.706 25.198,40.558 30.487,40.932 C31.066,40.973 31.641,41.079 32.143,41.144 C35.009,48.979 39.236,51.169 46.106,48.797 C48.285,48.045 50.671,47.694 52.984,47.572 C57.519,47.334 61.211,43.662 61.366,38.896 C61.519,34.186 57.995,30.103 53.475,29.751 C49.401,29.434 45.953,32.749 46.802,36.225 C47.435,38.813 49.471,39.653 51.743,39.267 C52.532,39.132 53.058,37.447 54.063,35.928 C54.277,37.334 54.911,38.815 54.52,39.938 C54.283,40.618 52.48,40.885 51.337,41.075 C50.416,41.229 49.43,40.991 48.472,40.926 C48.345,40.592 48.318,40.122 48.076,39.944 C45.535,38.08 44.505,35.681 45.858,32.738 C47.259,29.69 49.924,28.503 53.188,28.514 C54.38,28.518 55.572,28.513 56.764,28.512 C58.925,30.271 61.086,32.029 63.516,34.007 C63.546,33.98 64.198,33.34 64.92,32.794 C65.672,32.224 66.432,31.45 67.293,31.275 C71.087,30.504 73.701,28.459 74.994,24.784 C74.71,26.238 74.426,27.691 74.194,28.877 C75.999,30.03 77.462,30.964 78.925,31.899 C73.863,30.187 69.204,30.916 65.133,34.41 C61.606,37.438 62.114,42.891 66.245,44.933 C67.509,45.558 69.557,45.506 70.834,44.897 C71.782,44.445 72.695,42.462 72.472,41.404 C72.235,40.282 70.637,39.447 69.634,38.486 C70.981,38.665 72.626,39.086 73.345,40.139 C74.81,42.283 73.553,44.113 71.974,45.844 C68.167,50.018 63.545,52.216 57.824,52.502 C61.097,52.809 64.37,53.116 67.642,53.421 C69.246,53.347 70.85,53.273 72.453,53.199 C71.293,54.174 70.224,55.828 68.957,55.998 C64.901,56.541 60.772,56.534 56.671,56.74 C66.829,58.183 76.356,57.222 84.277,49.711 L84.277,49.711 Z M0,57.805 C9.812,63.436 18.002,62.479 25.826,55.449 C27.073,54.329 28.249,53.007 29.705,52.267 C33.332,50.424 33.785,48.043 31.369,44.977 C30.702,44.131 29.877,43.09 28.934,42.831 C23.194,41.254 21.434,37.342 23.922,31.934 C24.708,30.227 24.449,28.054 25.166,26.299 C26.023,24.202 27.296,22.24 28.615,20.381 C29.633,18.946 31.374,17.949 32.145,16.428 C35.199,10.409 43.102,6.906 49.917,8.595 C51.392,8.961 53.078,8.606 54.649,8.426 C56.182,8.25 57.688,7.661 59.214,7.628 C62.815,7.548 66.259,6.483 69.638,5.937 C75.391,5.007 79.199,0.052 84.998,0.095 C91.102,0.141 96.614,1.348 100.282,6.934 C100.778,7.69 102.124,8.27 103.083,8.278 C110.683,8.345 115.317,13.984 113.808,21.505 C113.168,24.69 115.957,28.218 119.19,28.473 C120.35,28.564 122.142,28.659 122.513,29.355 C124.319,32.746 128.488,33.624 130.15,37.593 C131.076,39.804 133.262,41.528 133.191,44.524 C133.094,48.567 130.982,51.476 127.137,52.56 C125.383,53.055 123.619,53.835 122.123,54.867 C118.901,57.09 115.59,57.357 112.064,55.356 C111.468,55.018 110.811,54.713 110.145,54.584 C107.687,54.108 105.213,53.712 102.099,53.175 C94.16,62.042 82.925,64.848 70.644,64.254 C66.652,64.06 62.693,62.716 58.773,61.689 C55.884,60.932 53.085,59.836 50.244,58.891 C43.23,56.56 36.584,56.772 29.789,60.326 C22.842,63.961 15.34,66.264 7.284,64.255 C4.181,63.481 1.681,61.833 0,57.805 L0,57.805 Z" id="Fill-1" fill="#1A1918" sketch:type="MSShapeGroup" mask="url(#mask-2)"></path>
                <path d="M55.908,14.823 C59.352,15.484 63.704,16.318 67.189,16.986 C65.338,14.17 59.248,12.94 55.908,14.823 L55.908,14.823 Z M74.995,24.783 C73.701,28.459 71.087,30.504 67.293,31.275 C66.432,31.45 65.672,32.224 64.92,32.794 C64.198,33.34 63.546,33.98 63.516,34.007 C61.086,32.029 58.925,30.271 56.764,28.512 C54.126,28.304 51.004,27.129 48.977,28.143 C46.671,29.296 44.391,32.201 43.854,34.719 C43.295,37.342 45.025,40.257 48.472,40.926 C49.43,40.991 50.416,41.229 51.337,41.075 C52.48,40.885 54.283,40.618 54.52,39.938 C54.911,38.815 54.277,37.334 54.063,35.928 C53.058,37.447 52.532,39.132 51.743,39.267 C49.471,39.653 47.435,38.813 46.802,36.225 C45.953,32.749 49.401,29.434 53.475,29.751 C57.995,30.103 61.519,34.186 61.366,38.896 C61.211,43.662 57.519,47.334 52.984,47.572 C50.671,47.694 48.285,48.045 46.106,48.797 C39.236,51.169 35.009,48.979 32.143,41.144 C31.641,41.079 31.066,40.973 30.487,40.932 C25.198,40.558 23.182,36.706 26.124,32.173 C27.225,30.476 27.572,29.063 27.437,26.996 C27.33,25.364 28.595,22.602 29.885,22.149 C32.142,21.356 32.981,20.179 33.744,18.155 C35.951,12.302 43.442,8.908 49.504,10.508 C51.142,10.94 53.163,10.814 54.781,10.269 C60.736,8.265 68.071,9.984 71.532,14.521 C73.321,16.865 74.369,19.667 72.634,22.176 C71.492,23.828 69.272,25.256 67.295,25.691 C64.067,26.402 62.433,24.518 63.476,20.019 C61.337,23.845 61.835,25.7 64.506,26.652 C67.482,27.713 70.279,27.108 72.478,24.894 C74.638,22.72 75.849,19.864 74.278,17.031 C72.703,14.193 70.388,11.765 68.055,8.708 C69.028,8.252 70.605,6.823 71.822,7.083 C74.527,7.66 75.976,6.207 77.799,4.87 C85.197,-0.556 94.862,1.79 100.647,10.311 C106.267,9.797 110.798,11.674 111.932,16.271 C113.004,20.618 112.853,25.329 112.752,29.87 C112.714,31.628 111.336,33.357 110.569,35.099 L110.682,34.999 C106.617,35.927 102.556,36.876 98.485,37.778 C93.15,38.96 88.934,36.782 88.067,32.436 C87.459,29.394 89.54,26.211 92.65,25.976 C93.847,25.886 95.289,26.63 96.291,27.414 C96.782,27.797 96.849,29.777 96.543,29.934 C95.5,30.468 94.207,30.513 91.787,30.981 C93.89,31.87 95.265,32.962 96.498,32.82 C97.58,32.696 98.503,31.189 99.496,30.293 C101.654,27.735 101.315,24.183 98.56,20.463 C97.98,19.881 97.401,19.299 96.822,18.718 C91.536,14.581 83.984,14.751 80.547,19.085 C78.696,20.984 76.845,22.884 74.995,24.783 L74.995,24.783 Z" id="Fill-3" fill="#FFFFFF" sketch:type="MSShapeGroup" mask="url(#mask-2)"></path>
            </g>
            <path d="M110.682,34.999 L110.569,35.099 C111.218,34.589 111.966,34.164 112.5,33.553 C116.578,28.892 119.884,29.325 123.932,34.027 C125.651,36.023 127.597,37.778 129.233,39.976 C130.983,42.326 131.343,44.51 130.636,46.931 C129.866,49.57 127.867,50.936 124.981,51.065 C124.045,51.106 122.991,51.693 122.248,52.33 C118.395,55.632 114.693,55.594 111.366,52.091 C107.279,53.469 104.625,52.391 103.775,49.007 C102.879,45.44 104.855,43.386 110.101,42.433 C110.533,43.859 110.965,45.286 111.654,47.559 C109.864,46.72 109.302,46.456 108.087,45.887 C110.012,48.137 110.012,48.137 114.46,46.708 C113.811,44.609 113.162,42.509 112.739,41.142 C111.403,41.813 110.725,42.153 110.048,42.494 C106.886,41.036 103.358,42.223 102.833,45.485 C101.506,53.725 95.495,56.894 88.548,59.751 C88.938,59.045 89.158,58.648 89.378,58.252 C91.691,56.501 94.226,54.969 96.24,52.924 C97.654,51.487 98.357,49.35 99.378,47.525 C98.792,47.356 98.13,46.921 97.631,47.061 C95.032,47.79 92.954,47.149 92.316,44.48 C91.72,41.986 92.906,39.91 95.541,39.358 C98.949,38.643 102.477,38.467 105.854,37.647 C107.576,37.229 109.079,35.91 110.682,34.999" id="Fill-5" fill="#FFFFFF" sketch:type="MSShapeGroup"></path>
            <path d="M96.822,18.718 C97.401,19.299 97.98,19.881 98.56,20.463 C97.984,20.878 97.409,21.292 97.447,21.265 C97.766,24.301 98.072,27.218 98.378,30.135 C97.72,27.467 97.378,24.4 93.664,24.415 C90.697,24.427 88.289,25.791 87.3,28.744 C86.113,32.284 87.455,36.37 90.125,37.951 C90.831,38.369 91.609,38.663 92.486,39.076 C90.73,41.873 89.935,44.536 92.135,47.429 C92.502,47.911 91.91,49.411 91.408,50.222 C86.528,58.11 78.812,59.892 70.3,59.822 C68.511,59.807 66.724,59.561 64.864,59.416 C72.102,58.847 79.604,59.16 84.221,51.982 C88.07,50.501 88.269,46.866 89.131,43.633 C89.731,41.381 88.693,39.735 86.999,38.444 C86.366,37.962 85.541,37.731 84.804,37.385 C82.844,35.557 80.885,33.728 78.925,31.899 C77.462,30.964 75.999,30.03 74.194,28.877 C74.426,27.691 74.71,26.238 74.994,24.784 C76.845,22.884 78.696,20.984 80.547,19.084 C85.9,15.76 91.343,16.436 96.822,18.718" id="Fill-6" fill="#FFFFFF" sketch:type="MSShapeGroup"></path>
            <path d="M78.925,31.899 C80.885,33.728 82.844,35.557 84.804,37.385 C85.405,38.406 86.467,39.41 86.505,40.451 C86.572,42.316 86.56,44.598 85.561,45.957 C84.765,47.039 82.379,47.502 80.84,47.276 C79.967,47.147 79.38,45.079 78.663,43.884 C79.483,43.801 80.302,43.718 81.334,43.614 C80.845,42.864 80.331,42.076 79.814,41.282 C80.314,41.072 80.746,40.891 81.613,40.527 C78.686,39.879 77.525,41.13 76.91,43.2 C75.113,47.779 71.478,50.692 67.642,53.423 C64.37,53.116 61.097,52.809 57.824,52.502 C63.545,52.216 68.167,50.018 71.974,45.844 C73.553,44.113 74.81,42.283 73.345,40.139 C72.626,39.086 70.981,38.665 69.634,38.486 C70.637,39.447 72.235,40.282 72.472,41.404 C72.695,42.462 71.782,44.445 70.834,44.897 C69.557,45.506 67.509,45.558 66.245,44.933 C62.114,42.891 61.606,37.438 65.133,34.41 C69.204,30.916 73.863,30.187 78.925,31.899" id="Fill-7" fill="#FFFFFF" sketch:type="MSShapeGroup"></path>
            <path d="M84.277,49.711 C76.356,57.222 66.829,58.183 56.671,56.74 C60.772,56.534 64.901,56.541 68.957,55.998 C70.224,55.828 71.293,54.174 72.452,53.2 C73.704,51.566 74.958,49.931 76.211,48.296 C79.17,47.225 81.885,47.547 84.277,49.711" id="Fill-8" fill="#FFFFFF" sketch:type="MSShapeGroup"></path>
            <path d="M99.378,47.525 C98.357,49.35 97.654,51.487 96.24,52.924 C94.226,54.969 91.691,56.501 89.378,58.252 C86.639,58.976 83.9,59.7 81.161,60.425 C86.523,57.976 90.67,54.436 93.554,49.135 C94.223,47.906 97.371,48.026 99.378,47.525" id="Fill-9" fill="#FFFFFF" sketch:type="MSShapeGroup"></path>
            <path d="M84.277,49.711 C81.885,47.547 79.17,47.225 76.211,48.296 C76.444,46.597 76.677,44.899 76.91,43.2 C77.525,41.13 78.686,39.879 81.613,40.527 C80.746,40.891 80.314,41.072 79.814,41.282 C80.331,42.076 80.845,42.864 81.334,43.614 C80.302,43.718 79.483,43.801 78.663,43.884 C79.38,45.079 79.967,47.147 80.84,47.276 C82.379,47.502 84.765,47.039 85.561,45.957 C86.56,44.598 86.572,42.316 86.505,40.451 C86.467,39.41 85.405,38.406 84.804,37.385 C85.541,37.731 86.366,37.962 86.999,38.444 C88.693,39.735 89.731,41.381 89.131,43.633 C88.269,46.866 88.07,50.501 84.221,51.982 C84.239,51.225 84.258,50.468 84.277,49.711" id="Fill-10" fill="#1A1918" sketch:type="MSShapeGroup"></path>
            <path d="M68.177,48.008 C61.863,52.551 55.229,49.592 48.669,49.213 C54.471,50.016 59.578,49.472 62.132,43.26 C64.145,44.841 65.883,46.207 68.177,48.008" id="Fill-11" fill="#FFFFFF" sketch:type="MSShapeGroup"></path>
            <path d="M48.472,40.926 C45.025,40.257 43.295,37.342 43.854,34.719 C44.391,32.201 46.671,29.296 48.977,28.143 C51.004,27.129 54.126,28.304 56.764,28.512 C55.572,28.513 54.38,28.518 53.188,28.514 C49.924,28.503 47.259,29.69 45.858,32.738 C44.505,35.681 45.535,38.08 48.076,39.944 C48.318,40.122 48.345,40.592 48.472,40.926" id="Fill-12" fill="#FFFFFF" sketch:type="MSShapeGroup"></path>
            <path d="M76.91,43.2 C76.677,44.899 76.444,46.597 76.211,48.296 C74.958,49.931 73.704,51.566 72.452,53.2 C70.85,53.273 69.246,53.347 67.642,53.422 C71.478,50.692 75.113,47.779 76.91,43.2" id="Fill-13" fill="#FFFFFF" sketch:type="MSShapeGroup"></path>
            <path d="M98.378,30.135 C98.072,27.218 97.766,24.301 97.447,21.265 C97.409,21.292 97.984,20.878 98.56,20.463 C101.315,24.183 101.654,27.735 99.496,30.293 C99.124,30.24 98.751,30.188 98.378,30.135" id="Fill-14" fill="#1A1918" sketch:type="MSShapeGroup"></path>
            <path d="M38.702,51.187 C35.877,52.517 33.051,53.847 30.226,55.177 C30.084,54.877 29.943,54.577 29.801,54.276 C32.629,52.952 35.456,51.627 38.284,50.303 C38.424,50.598 38.563,50.892 38.702,51.187" id="Fill-15" fill="#FFFFFF" sketch:type="MSShapeGroup"></path>
            <path d="M96.822,18.718 C91.343,16.436 85.9,15.76 80.547,19.084 C83.984,14.751 91.536,14.581 96.822,18.718" id="Fill-16" fill="#1A1918" sketch:type="MSShapeGroup"></path>
            <path d="M55.908,14.823 C59.248,12.94 65.338,14.17 67.189,16.986 C63.704,16.318 59.352,15.484 55.908,14.823" id="Fill-17" fill="#1A1918" sketch:type="MSShapeGroup"></path>
            <path d="M110.048,42.494 C110.725,42.153 111.403,41.813 112.739,41.142 C113.162,42.509 113.811,44.609 114.46,46.708 C110.012,48.137 110.012,48.137 108.087,45.887 C109.302,46.456 109.864,46.72 111.654,47.559 C110.965,45.286 110.533,43.859 110.101,42.433 C110.1,42.433 110.048,42.494 110.048,42.494" id="Fill-18" fill="#1A1918" sketch:type="MSShapeGroup"></path>
        </g>
    </g>
</svg>