<svg xmlns:dc="http://purl.org/dc/elements/1.1/" xmlns:cc="http://creativecommons.org/ns#" xmlns:rdf="http://www.w3.org/1999/02/22-rdf-syntax-ns#" xmlns:svg="http://www.w3.org/2000/svg" xmlns="http://www.w3.org/2000/svg" xmlns:sodipodi="http://sodipodi.sourceforge.net/DTD/sodipodi-0.dtd" xmlns:inkscape="http://www.inkscape.org/namespaces/inkscape" width="100" height="100" id="svg2" version="1.1" inkscape:version="0.48.4 r9939" sodipodi:docname="t50_pak_fa.svg">
  <defs id="defs4"/>
  <sodipodi:namedview id="base" pagecolor="#ffffff" bordercolor="#666666" borderopacity="1.0" inkscape:pageopacity="0.0" inkscape:pageshadow="2" inkscape:zoom="4" inkscape:cx="-1.325042" inkscape:cy="51.642865" inkscape:document-units="px" inkscape:current-layer="layer1" showgrid="true" inkscape:snap-bbox="true" inkscape:bbox-paths="true" inkscape:bbox-nodes="false" inkscape:snap-bbox-edge-midpoints="false" inkscape:snap-bbox-midpoints="false" inkscape:window-width="1920" inkscape:window-height="1032" inkscape:window-x="0" inkscape:window-y="24" inkscape:window-maximized="0" showguides="true" inkscape:guide-bbox="true" inkscape:snap-nodes="true" inkscape:snap-global="true">
    <inkscape:grid type="xygrid" id="grid2985" empspacing="5" visible="true" enabled="true" snapvisiblegridlinesonly="true"/>
    <sodipodi:guide orientation="1,0" position="700,-770" id="guide4067"/>
    <sodipodi:guide orientation="1,0" position="750,-770" id="guide4069"/>
    <sodipodi:guide orientation="0,1" position="749,-788" id="guide4071"/>
    <sodipodi:guide orientation="0,1" position="748,-808" id="guide4073"/>
    <sodipodi:guide orientation="1,0" position="774,30" id="guide4075"/>
    <sodipodi:guide orientation="1,0" position="490,-50" id="guide4464"/>
  </sodipodi:namedview>
  <metadata id="metadata7">
    <rdf:RDF>
      <cc:Work rdf:about="">
        <dc:format>image/svg+xml</dc:format>
        <dc:type rdf:resource="http://purl.org/dc/dcmitype/StillImage"/>
        <dc:title/>
      </cc:Work>
    </rdf:RDF>
  </metadata>
  <g inkscape:label="Layer 1" inkscape:groupmode="layer" id="layer1" transform="translate(0,-952.36218)">
    <path style="fill:grey;fill-opacity:1;stroke:none" d="m 50,957.87354 c -2.44669,0.194 -3.06818,10.2405 -3.06818,11.6591 l 0,19.2273 -0.61364,0 0,-1.2273 c 0.0327,-0.8182 0.009,-1.6346 -0.61363,-1.6363 l -3.68182,0 c -0.5393,0.015 -0.67117,0.8245 -0.61364,1.6363 l 0.40909,7.1591 c 0.0691,1.0232 0.0506,1.2767 -0.81818,1.6364 l -3.66264,1.5021 0,-3.2216 c 0,-0.2125 -0.17105,-0.3835 -0.38352,-0.3835 -0.21248,0 -0.38353,0.171 -0.38353,0.3835 l 0,3.5412 -4.14843,1.7067 0,-3.0746 c 0,-0.2125 -0.17106,-0.3835 -0.38353,-0.3835 -0.21247,0 -0.38352,0.171 -0.38352,0.3835 l 0,3.38776 -3.79048,1.5596 0,-2.86996 c 0,-0.2125 -0.17105,-0.3835 -0.38353,-0.3835 -0.21247,0 -0.38352,0.171 -0.38352,0.3835 l 0,3.18326 -1.02912,0.4218 0,-1.0227 -2.57599,1.1889 0,-2.0199 c 0,-0.2124 -0.17105,-0.3835 -0.38353,-0.3835 -0.21247,0 -0.38352,0.1711 -0.38352,0.3835 l 0,2.2948 -12.81605,5.6953 -0.40909,0 -0.61364,-0.6136 -0.40909,-1.0228 c -0.003,-1.0249 -0.61722,-1.835 -1.43182,-1.8409 -0.82339,-0.01 -1.43222,0.8133 -1.43181,1.8409 -0.2429,0.1694 -0.45703,0.3836 -0.61364,0.6137 l 0,0.6136 c 0.13166,0.1847 0.25912,0.2828 0.40909,0.4091 l 0,0.4091 0,9.6136 c -0.0111,0.2085 0.17513,0.4052 0.40909,0.4091 l 2.04546,0 c 0.36088,0 0.78868,0.04 0.81818,-0.2045 l 0.20454,-2.6591 14.52273,0 0,0.4091 3.27273,0 0,-0.4091 1.43182,0 0,0.4091 4.29545,0 0,-0.4091 9.61364,-0.2046 0.40909,4.0909 c 0.28094,1.8608 0.64111,4.9091 1.43182,4.9091 l 4.09091,0 0.20454,5.5228 -12.06818,3.4772 c -0.63507,1.86 -0.73962,3.6705 0,4.9091 l 12.27273,1.2273 c 0.21673,2.7557 0.54502,5.3398 1.63636,6.75 1.09134,-1.4102 1.41963,-3.9943 1.63636,-6.75 l 12.27273,-1.2273 c 0.73962,-1.2386 0.63507,-3.0491 0,-4.9091 l -12.06818,-3.4772 0.20454,-5.5228 4.09091,0 c 0.79071,0 1.15088,-3.0483 1.43182,-4.9091 l 0.40909,-4.0909 9.61364,0.2046 0,0.4091 4.29545,0 0,-0.4091 1.43182,0 0,0.4091 3.27273,0 0,-0.4091 14.52273,0 0.20454,2.6591 c 0.0295,0.2444 0.4573,0.2066 0.81818,0.2045 l 2.04546,0 c 0.23396,0 0.4202,-0.2006 0.40909,-0.4091 l 0,-9.6136 0,-0.4091 c 0.14997,-0.1263 0.27743,-0.2244 0.40909,-0.4091 l 0,-0.6136 c -0.15661,-0.2301 -0.37074,-0.4443 -0.61364,-0.6137 4.1e-4,-1.0276 -0.60842,-1.8472 -1.43181,-1.8409 -0.8146,0.01 -1.42914,0.816 -1.43182,1.8409 l -0.40909,1.0228 -0.61364,0.6136 -0.40909,0 -12.81605,-5.6953 0,-2.2948 c 0,-0.2124 -0.17105,-0.3835 -0.38352,-0.3835 -0.21248,0 -0.38353,0.1711 -0.38353,0.3835 l 0,2.0199 -2.57599,-1.1889 0,1.0227 -1.02912,-0.4218 0,-3.18326 c 0,-0.2125 -0.17105,-0.3835 -0.38352,-0.3835 -0.21248,0 -0.38353,0.171 -0.38353,0.3835 l 0,2.86996 -3.79048,-1.5596 0,-3.38776 c 0,-0.2125 -0.17105,-0.3835 -0.38352,-0.3835 -0.21247,0 -0.38352,0.171 -0.38352,0.3835 l 0,3.0746 -4.14844,-1.7067 0,-3.5412 c 0,-0.2125 -0.17105,-0.3835 -0.38353,-0.3835 -0.21247,0 -0.38352,0.171 -0.38352,0.3835 l 0,3.2216 L 59,996.32814 c -0.86874,-0.3597 -0.88729,-0.6132 -0.81818,-1.6364 l 0.40909,-7.1591 c 0.0575,-0.8118 -0.0743,-1.6208 -0.61364,-1.6363 l -3.68182,0 c -0.62224,0 -0.64634,0.8181 -0.61363,1.6363 l 0,1.2273 -0.61364,0 0,-19.2273 c 0,-1.4186 -0.62149,-11.4651 -3.06818,-11.6591 z m -1.84091,11.25 c 0.1346,1.8416 -0.0452,3.7954 0.40909,5.5228 l -1.43182,0.409 c 0.10309,-2.0182 -0.20454,-4.2954 1.02273,-5.9318 z m 0.40909,0 1.43182,0 1.43182,0 c -0.20455,4.2955 0.18542,5.7273 -1.43182,5.7273 -1.61724,0 -1.22727,-1.4318 -1.43182,-5.7273 z m 3.27273,0 c 1.22727,1.6364 0.91964,3.9136 1.02273,5.9318 l -1.43182,-0.409 c 0.45432,-1.7274 0.27449,-3.6812 0.40909,-5.5228 z m -2.25,6.1364 0,4.0909 c -0.77051,0.01 -1.54919,-0.039 -2.25,0.4091 l 0,-3.8864 c 0.69616,-0.5814 1.48688,-0.5009 2.25,-0.6136 z m 0.81818,0 c 0.76312,0.1127 1.55384,0.032 2.25,0.6136 l 0,3.8864 c -0.70081,-0.4479 -1.47949,-0.4026 -2.25,-0.4091 l 0,-4.0909 z" id="path4466" inkscape:connector-curvature="0"/>
  </g>
</svg>