<?xml version="1.0" encoding="UTF-8" standalone="no"?>
<svg id='medium_cloud' width="110px" height="77px" viewBox="0 0 110 77" version="1.1" xmlns="http://www.w3.org/2000/svg" xmlns:xlink="http://www.w3.org/1999/xlink" xmlns:sketch="http://www.bohemiancoding.com/sketch/ns">
    <!-- Generator: Sketch 3.0.4 (8053) - http://www.bohemiancoding.com/sketch -->
    <title>medium_cloud_2</title>
    <desc>Created with Sketch.</desc>
    <defs>
        <path id="path-1" d="M0.06,0.384 L109.214,0.384 L109.214,76.94 L0.06,76.94 L0.06,0.384 Z"></path>
    </defs>
    <g id="Page-1" stroke="none" stroke-width="1" fill="none" fill-rule="evenodd" sketch:type="MSPage">
        <g id="medium_cloud_2" sketch:type="MSLayerGroup">
            <g id="Group-4">
                <mask id="mask-2" sketch:name="Clip 2" fill="white">
                    <use xlink:href="#path-1"></use>
                </mask>
                <g id="Clip-2"></g>
                <path d="M63.604,32.842 C71.856,38.935 70.194,48.557 65.282,55.237 C64.156,56.768 62.884,58.263 62.118,59.971 C60.478,63.626 61.444,66.655 64.463,68.351 C68.035,70.358 71.769,69.651 74.061,66.549 C75.109,65.132 75.657,63.561 73.729,62.672 C72.867,62.276 71.513,62.948 69.978,63.202 C69.978,63.058 69.575,61.721 70.045,61.243 C72.614,58.627 74.73,61.595 76.943,62.226 C77.805,61.25 78.526,60.434 79.766,59.031 C77.77,64.73 79.158,67.451 83.961,68.608 C90.868,70.273 96.718,67.173 98.875,60.706 C101.021,54.272 98.249,48.141 91.873,45.365 C90.494,44.765 89.018,44.391 86.611,43.586 C88.441,43.377 89.272,43.282 90.105,43.187 C89.003,35.162 81.451,29.27 74.254,30.896 C72.731,31.241 70.793,32.897 70.452,34.293 C70.192,35.357 72.153,36.965 73.12,38.322 C70.989,39.106 69.81,37.395 69.098,35.216 C68.252,32.627 66.604,32.086 63.604,32.842 L63.604,32.842 Z M68.537,18.951 C68.42,18.951 68.294,18.923 68.188,18.959 C68.089,18.992 67.927,19.107 67.937,19.159 C68.82,23.965 68.268,24.8 63.518,25.861 C62.73,26.037 61.955,26.272 61.174,26.48 C61.102,26.782 61.029,27.085 60.957,27.387 C62.097,27.783 63.237,28.179 64.377,28.574 C63.353,29.615 62.33,30.656 61.307,31.697 C60.322,30.1 59.652,28.063 58.245,27.055 C57.264,26.352 55.273,27.058 53.699,27.136 C53.495,23.396 49.855,20.193 43.964,19.166 C35.402,17.674 30.145,20.076 27.604,26.205 C26.439,25.607 25.31,24.511 24.233,24.561 C18.934,24.804 15.358,31.703 18.228,36.128 C18.809,37.024 20.3,37.33 21.372,37.908 C21.777,37.024 22.183,36.14 22.589,35.255 C22.894,35.272 23.199,35.288 23.503,35.304 C23.263,36.465 23.414,38.04 22.707,38.707 C20.8,40.508 18.715,39.244 15.459,34.595 C1.64,36.203 -1.172,53.512 5.975,62.094 C11.529,68.763 24.578,69.652 29.817,63.368 C31.199,61.71 31.923,58.685 31.514,56.565 C31.025,54.039 28.467,52.732 25.588,52.991 C25.259,53.02 24.917,52.918 23.945,52.799 C28.651,51.037 31.335,52.724 33.83,58.255 C35.183,57.775 36.505,57.003 37.886,56.877 C40.881,56.604 43.788,57.218 45.26,60.178 C46.297,62.263 46.005,64.401 43.741,65.799 C44.589,63.559 45.888,61.218 43.171,59.367 C40.681,57.672 37.998,57.478 35.424,59.177 C32.709,60.968 31.398,63.651 31.564,66.849 C31.732,70.085 33.851,72.089 36.69,73.197 C43.443,75.834 49.842,74.902 55.83,70.92 C61.725,76.601 72.026,76.213 77.328,69.964 C78.171,68.97 78.193,67.279 78.595,65.91 C78.301,65.823 78.007,65.735 77.712,65.648 C75.202,69.809 70.216,71.97 65.763,70.247 C63.819,69.495 61.641,67.842 60.846,66.037 C59.997,64.108 60.655,61.516 60.655,58.952 C58.362,59.971 56.303,60.886 54.243,61.801 C52.962,61.494 51.68,61.187 50.672,60.945 C49.854,62.479 49.318,63.484 48.782,64.489 C49.856,62.096 49.205,60.681 46.775,59.382 C43.505,57.632 41.768,54.586 42.12,50.737 C42.272,49.084 42.976,47.487 43.182,45.833 C43.873,40.293 39.956,36.355 34.543,37.388 C33.132,37.658 31.313,38.912 30.86,40.147 C30.452,41.257 31.661,42.961 32.086,44.197 C29.501,43.78 28.038,40.877 30.107,38.552 C31.322,37.186 33.472,36.075 35.271,35.962 C37.252,35.838 39.941,36.398 41.193,37.725 C43.064,39.709 43.949,42.624 45.345,45.319 C47.631,44.27 50.443,43.702 52.863,46.889 C47.673,45.228 45.146,45.834 43.826,48.919 C42.44,52.158 43.883,56.112 47.332,58.186 C48.333,58.788 49.494,59.272 50.639,59.462 C57.922,60.67 65.294,56.01 67.223,48.394 C68.002,45.319 68.207,41.485 67.022,38.699 C65.857,35.958 62.598,34.107 60.452,32.052 C60.289,32.128 60.827,31.877 61.372,31.618 C66.354,30.096 71.359,28.64 76.265,26.904 C76.602,26.785 76.577,24.37 76.049,23.381 C75.299,21.975 73.926,20.902 72.818,19.686 C74.412,21.03 76.656,22.092 77.397,23.804 C78.008,25.216 76.84,27.398 76.502,29.04 C79.274,29.745 82.654,30.603 86.033,31.462 C87.551,34.097 89.069,36.732 90.592,39.376 C95.11,36.254 96.318,33.887 94.395,30.958 C91.22,26.123 86.735,22.872 80.962,21.628 C78.361,19.891 75.76,18.154 73.159,16.417 C73.383,16.463 73.607,16.532 73.832,16.54 C73.911,16.543 74.056,16.402 74.068,16.312 C74.335,14.356 74.587,12.399 74.824,10.575 C73.159,11.109 70.574,11.636 71.966,15.226 C69.23,13.491 70.206,11.807 72.325,10.689 C74.571,9.505 77.071,8.8 79.46,7.886 C75.8,8.276 72.16,8.964 68.825,10.373 C65.226,11.893 65.151,13.112 67.542,16.269 C67.9,16.741 68.364,17.132 68.779,17.561 C68.698,18.025 68.618,18.488 68.537,18.951 L68.537,18.951 Z M29.082,67.121 C22.796,69.905 16.34,70.525 9.985,67.632 C3.445,64.655 -0.613,56.887 0.076,49.49 C0.869,40.964 5.21,35.639 13.047,33.28 C13.903,33.022 14.827,31.893 15.1,30.982 C16.686,25.683 19.826,23.083 25.334,22.482 C26.516,22.353 27.83,21.716 28.723,20.913 C35.491,14.83 47.761,15.587 53.72,22.551 C55.741,24.913 63.91,25.203 65.82,22.811 C66.252,22.27 66.05,20.804 65.614,20.082 C64.95,18.985 63.807,18.184 62.903,17.224 C59.319,13.423 59.587,10.334 64.067,7.558 C69.705,4.066 75.957,3.461 82.442,4.192 C88.5,4.874 94.568,5.503 100.646,5.949 C102.174,6.061 103.759,5.382 105.914,4.947 C104.187,3.08 103.013,1.813 101.691,0.384 C105.029,0.364 109.118,3.625 109.21,6.291 C109.329,9.719 106.536,10.548 104.127,10.747 C98.779,11.188 93.386,11.056 88.015,11.237 C84.813,11.346 81.526,11.205 78.444,11.908 C75.182,12.652 74.951,14.596 77.663,16.535 C79.503,17.85 81.678,18.685 83.567,19.941 C87.241,22.384 91.164,24.604 94.352,27.591 C98.392,31.376 97.873,35.834 93.73,39.409 C90.803,41.935 90.81,42.324 94.267,44.395 C99.379,47.458 101.887,51.825 101.402,57.856 C100.972,63.191 98.695,67.64 93.656,69.412 C90.336,70.58 86.419,70.004 82.782,70.343 C81.445,70.468 79.715,70.554 78.893,71.382 C72.813,77.509 64.73,78.702 57.148,74.578 C56.06,73.985 54.381,74.243 53.02,74.429 C48.918,74.992 44.83,76.29 40.75,76.235 C34.85,76.157 31.561,73.162 29.082,67.121 L29.082,67.121 Z" id="Fill-1" fill="#1A1918" sketch:type="MSShapeGroup" mask="url(#mask-2)"></path>
                <path d="M11.32,44.686 C11.36,45.041 11.399,45.396 11.438,45.751 C14.142,45.185 17.079,42.646 19.259,46.207 C19.464,46.543 18.014,47.892 17.333,48.77 C17.399,48.911 17.466,49.052 17.533,49.193 C18.492,48.384 19.45,47.575 20.408,46.766 C19.466,45.736 18.603,43.946 17.563,43.836 C15.534,43.622 13.407,44.349 11.32,44.686 L11.32,44.686 Z M47.299,51.143 C48.736,54.318 51.681,55.398 54.75,53.887 C57.907,52.334 58.714,48.899 56.587,45.05 C57.178,48.079 57.603,51.09 54.466,52.972 C51.513,54.743 49.802,51.34 47.299,51.143 L47.299,51.143 Z M61.366,31.626 C60.827,31.877 60.289,32.128 60.452,32.052 C62.598,34.107 65.857,35.958 67.022,38.699 C68.207,41.485 68.002,45.319 67.223,48.394 C65.294,56.01 57.922,60.67 50.639,59.462 C49.494,59.272 48.333,58.788 47.332,58.186 C43.883,56.112 42.44,52.158 43.826,48.919 C45.146,45.834 47.673,45.228 52.863,46.889 C50.443,43.702 47.631,44.27 45.345,45.319 C43.949,42.624 43.064,39.709 41.193,37.725 C39.941,36.398 37.252,35.838 35.271,35.962 C33.472,36.075 31.322,37.186 30.107,38.552 C28.038,40.877 29.501,43.78 32.086,44.197 C31.661,42.961 30.452,41.257 30.86,40.147 C31.313,38.912 33.132,37.658 34.543,37.388 C39.956,36.355 43.873,40.293 43.182,45.833 C42.976,47.487 42.272,49.084 42.12,50.737 C41.768,54.586 43.505,57.632 46.775,59.382 C49.205,60.681 49.856,62.096 48.783,64.487 C47.779,65.48 46.775,66.474 45.771,67.467 C44.468,67.346 42.885,67.64 41.936,66.997 C40.805,66.23 40.219,64.661 39.397,63.439 C40.524,62.894 41.651,62.349 42.778,61.804 C42.616,63.041 42.454,64.277 42.279,65.619 C42.642,65.663 43.192,65.731 43.741,65.799 C46.005,64.401 46.297,62.263 45.26,60.178 C43.788,57.218 40.881,56.604 37.886,56.877 C36.505,57.003 35.183,57.775 33.83,58.255 C31.335,52.724 28.651,51.037 23.945,52.799 C24.917,52.918 25.259,53.02 25.588,52.991 C28.467,52.732 31.025,54.039 31.514,56.565 C31.923,58.685 31.199,61.71 29.817,63.368 C24.578,69.652 11.529,68.763 5.975,62.094 C-1.172,53.512 1.64,36.203 15.459,34.595 C18.715,39.244 20.8,40.508 22.707,38.707 C23.414,38.04 23.263,36.465 23.503,35.304 C23.199,35.288 22.894,35.272 22.589,35.255 C22.183,36.14 21.777,37.024 21.372,37.908 C20.3,37.33 18.809,37.024 18.228,36.128 C15.358,31.703 18.934,24.804 24.233,24.561 C25.31,24.511 26.439,25.607 27.604,26.205 C30.145,20.076 35.402,17.674 43.964,19.166 C49.855,20.193 53.495,23.396 53.699,27.136 C55.273,27.058 57.264,26.352 58.245,27.055 C59.652,28.063 60.322,30.1 61.31,31.694 C61.313,31.69 61.366,31.626 61.366,31.626 L61.366,31.626 Z" id="Fill-3" fill="#FFFFFF" sketch:type="MSShapeGroup" mask="url(#mask-2)"></path>
            </g>
            <path d="M63.604,32.842 C66.604,32.086 68.252,32.627 69.098,35.216 C69.81,37.395 70.989,39.106 73.12,38.322 C72.153,36.965 70.192,35.357 70.452,34.293 C70.793,32.897 72.731,31.241 74.254,30.896 C81.451,29.27 89.003,35.162 90.105,43.187 C89.272,43.282 88.441,43.377 86.611,43.586 C89.018,44.391 90.494,44.765 91.873,45.365 C98.249,48.141 101.021,54.272 98.875,60.706 C96.718,67.173 90.868,70.273 83.961,68.608 C79.158,67.451 77.77,64.73 79.766,59.031 C78.526,60.434 77.805,61.25 76.943,62.226 C74.73,61.595 72.614,58.627 70.045,61.243 C69.575,61.721 69.978,63.058 69.978,63.202 C71.513,62.948 72.867,62.276 73.729,62.672 C75.657,63.561 75.109,65.132 74.061,66.549 C71.769,69.651 68.035,70.358 64.463,68.351 C61.444,66.655 60.478,63.626 62.118,59.971 C62.884,58.263 64.156,56.768 65.282,55.237 C70.194,48.557 71.856,38.935 63.604,32.842" id="Fill-5" fill="#FFFFFF" sketch:type="MSShapeGroup"></path>
            <path d="M43.741,65.799 C43.192,65.731 42.642,65.663 42.279,65.619 C42.454,64.277 42.616,63.041 42.778,61.804 C40.693,59.459 39.057,60.136 37.682,62.561 C37.887,67.785 39.566,70.076 43.776,70.878 C46.887,71.471 50.659,68.898 52.303,65.174 C52.824,63.994 53.59,62.922 54.243,61.801 C56.303,60.886 58.362,59.971 60.655,58.952 C60.655,61.516 59.997,64.108 60.846,66.037 C61.641,67.842 63.819,69.495 65.763,70.247 C70.216,71.97 75.202,69.809 77.712,65.648 C78.007,65.735 78.301,65.823 78.595,65.91 C78.193,67.279 78.171,68.97 77.328,69.964 C72.026,76.213 61.725,76.601 55.83,70.92 C49.842,74.902 43.443,75.834 36.69,73.197 C33.851,72.089 31.732,70.085 31.564,66.849 C31.398,63.651 32.709,60.968 35.424,59.177 C37.998,57.478 40.681,57.672 43.171,59.367 C45.888,61.218 44.589,63.559 43.741,65.799" id="Fill-6" fill="#FFFFFF" sketch:type="MSShapeGroup"></path>
            <path d="M73.159,16.417 C75.76,18.154 78.361,19.891 80.962,21.628 C82.637,22.902 84.371,24.108 85.973,25.468 C88.234,27.389 88.934,29.436 86.033,31.462 C82.654,30.603 79.274,29.745 76.502,29.04 C76.84,27.398 78.008,25.216 77.397,23.804 C76.656,22.092 74.412,21.03 72.819,19.686 C72.374,19.55 71.929,19.414 71.484,19.278 C70.582,18.706 69.68,18.133 68.779,17.561 C68.364,17.132 67.9,16.741 67.542,16.269 C65.151,13.112 65.226,11.893 68.825,10.373 C72.16,8.964 75.8,8.276 79.46,7.886 C77.071,8.8 74.571,9.505 72.325,10.689 C70.206,11.807 69.23,13.491 71.965,15.225 C72.362,15.622 72.76,16.019 73.159,16.417" id="Fill-7" fill="#FFFFFF" sketch:type="MSShapeGroup"></path>
            <path d="M86.033,31.462 C88.934,29.436 88.234,27.389 85.973,25.468 C84.371,24.108 82.637,22.902 80.962,21.628 C86.735,22.872 91.22,26.123 94.395,30.958 C96.318,33.887 95.11,36.254 90.592,39.376 C89.069,36.732 87.551,34.097 86.033,31.462" id="Fill-8" fill="#FFFFFF" sketch:type="MSShapeGroup"></path>
            <path d="M54.243,61.801 C53.59,62.922 52.824,63.994 52.303,65.174 C50.659,68.898 46.887,71.471 43.776,70.878 C39.566,70.076 37.887,67.785 37.682,62.561 C37.992,63.315 38.3,64.07 38.613,64.823 C39.987,68.128 42.15,68.926 45.771,67.467 C46.775,66.474 47.779,65.48 48.783,64.487 C49.318,63.484 49.854,62.479 50.672,60.945 C51.68,61.187 52.962,61.494 54.243,61.801" id="Fill-9" fill="#FFFFFF" sketch:type="MSShapeGroup"></path>
            <path d="M71.484,19.278 C71.929,19.414 72.374,19.55 72.819,19.686 C73.926,20.902 75.299,21.975 76.049,23.381 C76.577,24.37 76.602,26.785 76.265,26.904 C71.359,28.64 66.354,30.096 61.369,31.622 C61.366,31.626 61.313,31.69 61.31,31.694 C62.33,30.656 63.353,29.615 64.377,28.574 L64.307,28.636 C66.271,28.213 68.351,28.067 70.175,27.308 C73.732,25.828 74.131,24.181 72.203,20.884 C71.909,20.38 71.721,19.815 71.484,19.278" id="Fill-10" fill="#FFFFFF" sketch:type="MSShapeGroup"></path>
            <path d="M64.377,28.574 C63.237,28.179 62.097,27.783 60.957,27.387 C61.029,27.085 61.102,26.782 61.174,26.48 C61.955,26.272 62.73,26.037 63.518,25.861 C68.268,24.8 68.82,23.965 67.937,19.159 C67.927,19.107 68.089,18.992 68.188,18.959 C68.294,18.923 68.42,18.951 68.537,18.951 C69.066,19.42 69.599,19.886 70.123,20.36 C73.422,23.34 73.069,25.287 68.892,26.961 C67.382,27.567 65.836,28.081 64.307,28.636 L64.377,28.574" id="Fill-11" fill="#FFFFFF" sketch:type="MSShapeGroup"></path>
            <path d="M64.307,28.636 C65.836,28.081 67.382,27.567 68.892,26.961 C73.069,25.287 73.422,23.34 70.123,20.36 C69.599,19.886 69.066,19.42 68.537,18.951 C68.618,18.488 68.698,18.025 68.779,17.561 C69.68,18.133 70.582,18.706 71.484,19.278 C71.721,19.815 71.909,20.38 72.203,20.884 C74.131,24.181 73.732,25.828 70.175,27.308 C68.351,28.067 66.271,28.213 64.307,28.636" id="Fill-12" fill="#1A1918" sketch:type="MSShapeGroup"></path>
            <path d="M73.159,16.417 C72.76,16.019 72.362,15.622 71.965,15.225 C70.574,11.636 73.159,11.109 74.824,10.575 C74.587,12.399 74.335,14.356 74.068,16.312 C74.056,16.402 73.911,16.543 73.832,16.54 C73.607,16.532 73.383,16.463 73.159,16.417" id="Fill-13" fill="#FFFFFF" sketch:type="MSShapeGroup"></path>
            <path d="M47.299,51.143 C49.802,51.34 51.513,54.743 54.466,52.972 C57.603,51.09 57.178,48.079 56.587,45.05 C58.714,48.899 57.907,52.334 54.75,53.887 C51.681,55.398 48.736,54.318 47.299,51.143" id="Fill-14" fill="#1A1918" sketch:type="MSShapeGroup"></path>
            <path d="M45.771,67.467 C42.15,68.926 39.987,68.128 38.613,64.823 C38.3,64.07 37.992,63.315 37.682,62.561 C39.057,60.136 40.693,59.459 42.778,61.804 C41.651,62.349 40.524,62.894 39.397,63.439 C40.219,64.661 40.805,66.23 41.936,66.997 C42.885,67.64 44.468,67.346 45.771,67.467" id="Fill-15" fill="#1A1918" sketch:type="MSShapeGroup"></path>
            <path d="M11.32,44.686 C13.407,44.349 15.534,43.622 17.563,43.836 C18.603,43.946 19.466,45.736 20.408,46.766 C19.45,47.575 18.492,48.384 17.533,49.193 C17.466,49.052 17.399,48.911 17.333,48.77 C18.014,47.892 19.464,46.543 19.259,46.207 C17.079,42.646 14.142,45.185 11.438,45.751 C11.399,45.396 11.36,45.041 11.32,44.686" id="Fill-16" fill="#1A1918" sketch:type="MSShapeGroup"></path>
        </g>
    </g>
</svg>