<?xml version="1.0" encoding="UTF-8" standalone="no"?>
<svg id="small_cloud" width="63px" height="32px" viewBox="0 0 63 32" version="1.1" xmlns="http://www.w3.org/2000/svg" xmlns:xlink="http://www.w3.org/1999/xlink" xmlns:sketch="http://www.bohemiancoding.com/sketch/ns">
    <!-- Generator: Sketch 3.0.4 (8053) - http://www.bohemiancoding.com/sketch -->
    <title>small_cloud</title>
    <desc>Created with Sketch.</desc>
    <defs>
        <path id="path-1" d="M0.06,-0.004 L62.153,-0.004 L62.153,32 L0.06,32 L0.06,-0.004 Z"></path>
    </defs>
    <g id="Page-1" stroke="none" stroke-width="1" fill="none" fill-rule="evenodd" sketch:type="MSPage">
        <g id="small_cloud" sketch:type="MSLayerGroup">
            <g id="Group-3">
                <mask id="mask-2" sketch:name="Clip 2" fill="white">
                    <use xlink:href="#path-1"></use>
                </mask>
                <g id="Clip-2"></g>
                <path d="M30.201,19.132 C31.877,27.827 34.48,29.804 41.926,27.82 C35.987,28.846 34.486,24.279 32.385,20.47 C32.894,20.277 33.752,19.8 33.861,19.934 C35.848,22.365 38.208,22.282 39.957,20.149 C41.783,17.921 40.618,15.757 38.632,13.886 C37.743,13.049 37.037,11.733 36.812,10.529 C36.173,7.117 33.926,4.682 30.866,5.001 C29.589,5.135 27.983,5.929 27.334,6.941 C26.881,7.648 27.799,9.234 28.105,10.428 C27.015,9.779 25.886,8.625 26.053,7.704 C26.677,4.255 24.398,3.273 22.003,2.385 C18.132,0.95 12.826,2.822 10.138,6.328 C7.99,9.129 5.785,11.891 3.507,14.587 C0.221,18.477 2.091,24.126 6.975,25.233 C8.489,25.576 10.019,26.314 11.274,27.236 C14.098,29.315 18.037,29.609 20.271,27.906 C21.088,27.282 22.398,26.916 23.42,27.025 C26.363,27.339 28.643,25.915 29.266,23.031 C29.793,20.59 28.093,17.661 25.551,17.35 C24.398,17.208 23.108,18.178 21.88,18.644 C22.551,19.488 23.222,20.332 24.1,21.438 C22.458,23.696 20.785,21.682 18.195,20.345 C19.546,18.141 20.38,15.209 22.235,14.25 C23.724,13.481 26.45,15.103 28.626,15.664 C27.132,15.352 25.604,14.691 24.153,14.831 C22.836,14.957 21.601,15.954 20.33,16.567 C20.477,16.872 20.625,17.177 20.771,17.482 C24.69,14.911 26.57,15.24 30.201,19.132 L30.201,19.132 Z M38.315,24.044 C42.408,26.303 45.858,24.687 49.285,23.398 C53.41,21.846 57.411,21.297 61.136,24.339 C61.549,24.676 61.813,25.195 62.153,25.637 C61.778,25.926 61.527,26.226 61.425,26.181 C56.794,24.169 52.97,25.839 49.083,28.438 C42.843,32.61 36.616,33.517 29.705,28.996 C27.719,27.697 23.555,28.865 20.747,29.885 C16.387,31.468 13.406,31.305 9.883,28.198 C9.098,27.507 7.857,26.933 6.847,26.965 C0.42,27.168 -1.641,18.17 1.34,14.511 C4.24,10.951 6.948,7.224 9.999,3.8 C13.944,-0.625 20.804,-1.171 25.735,2.063 C26.785,2.752 28.315,3.082 29.586,2.997 C34.509,2.668 37.569,4.87 38.616,9.706 C38.808,10.592 39.1,11.587 39.678,12.239 C44.238,17.38 44.051,19.914 38.315,24.044 L38.315,24.044 Z" id="Fill-1" fill="#1A1918" sketch:type="MSShapeGroup" mask="url(#mask-2)"></path>
            </g>
            <path d="M28.627,15.664 C26.45,15.103 23.724,13.481 22.235,14.25 C20.38,15.209 19.546,18.141 18.195,20.345 C20.785,21.682 22.458,23.696 24.1,21.438 C23.222,20.332 22.551,19.488 21.88,18.644 C23.108,18.178 24.398,17.208 25.551,17.35 C28.093,17.661 29.793,20.59 29.266,23.031 C28.643,25.915 26.363,27.339 23.42,27.025 C22.398,26.916 21.088,27.282 20.271,27.906 C18.037,29.609 14.098,29.315 11.274,27.236 C10.019,26.314 8.489,25.576 6.975,25.233 C2.091,24.126 0.221,18.477 3.507,14.587 C5.785,11.891 7.99,9.129 10.138,6.328 C12.826,2.822 18.132,0.95 22.003,2.385 C24.398,3.273 26.677,4.255 26.053,7.704 C25.886,8.625 27.015,9.779 28.105,10.428 C27.799,9.234 26.881,7.648 27.334,6.941 C27.983,5.929 29.589,5.135 30.866,5.001 C33.926,4.682 36.173,7.117 36.812,10.529 C37.037,11.733 37.743,13.049 38.632,13.886 C40.618,15.757 41.783,17.921 39.957,20.149 C38.208,22.282 35.848,22.365 33.861,19.934 C33.752,19.8 32.894,20.277 32.385,20.47 C31.955,19.993 31.525,19.516 31.096,19.04 C30.273,17.914 29.45,16.789 28.627,15.664" id="Fill-4" fill="#FFFFFF" sketch:type="MSShapeGroup"></path>
            <path d="M31.096,19.04 C31.525,19.516 31.955,19.993 32.385,20.47 C34.486,24.279 35.987,28.846 41.926,27.82 C34.48,29.804 31.877,27.827 30.201,19.132 C30.5,19.101 30.798,19.07 31.096,19.04" id="Fill-5" fill="#FFFFFF" sketch:type="MSShapeGroup"></path>
            <path d="M31.096,19.04 C30.798,19.07 30.5,19.101 30.201,19.132 C26.57,15.24 24.69,14.911 20.771,17.482 C20.625,17.177 20.477,16.872 20.33,16.567 C21.601,15.954 22.836,14.957 24.153,14.831 C25.604,14.691 27.132,15.352 28.627,15.664 C29.45,16.789 30.273,17.914 31.096,19.04" id="Fill-6" fill="#FFFFFF" sketch:type="MSShapeGroup"></path>
        </g>
    </g>
</svg>