<?xml version="1.0" encoding="UTF-8" standalone="no"?>
<svg id='small_cloud2' width="60px" height="27px" viewBox="0 0 60 27" version="1.1" xmlns="http://www.w3.org/2000/svg" xmlns:xlink="http://www.w3.org/1999/xlink" xmlns:sketch="http://www.bohemiancoding.com/sketch/ns">
    <!-- Generator: Sketch 3.0.4 (8053) - http://www.bohemiancoding.com/sketch -->
    <title>small_cloud_2</title>
    <desc>Created with Sketch.</desc>
    <defs>
        <path id="path-1" d="M0,26 L59.176,26 L59.176,-0.156 L0,-0.156"></path>
    </defs>
    <g id="Page-1" stroke="none" stroke-width="1" fill="none" fill-rule="evenodd" sketch:type="MSPage">
        <g id="small_cloud_2" sketch:type="MSLayerGroup" transform="translate(0.000000, 1.000000)">
            <g id="Group-3">
                <mask id="mask-2" sketch:name="Clip 2" fill="white">
                    <use xlink:href="#path-1"></use>
                </mask>
                <g id="Clip-2"></g>
                <path d="M59.176,13.068 C57.79,12.947 56.372,12.969 55.021,12.681 C46.055,10.771 38.779,14.496 32.282,19.915 C26.524,24.716 20.721,27.943 13.073,24.674 C12.306,24.346 11.194,24.94 10.288,24.804 C7.853,24.44 5.236,24.353 3.072,23.342 C-0.013,21.9 -0.696,18.372 0.671,15.286 C1.178,14.142 1.503,12.669 1.254,11.483 C0.33,7.086 4.633,0.03 9.08,-0.131 C13.018,-0.273 17.086,0.215 20.923,1.142 C24.407,1.984 25.973,5.102 26.22,8.538 C26.465,11.934 24.235,14.188 19.089,16.022 C25.867,17.354 31.662,15.675 37.033,12.715 C43.376,9.22 49.847,9.369 56.528,11.018" id="Fill-1" fill="#1A1918" sketch:type="MSShapeGroup" mask="url(#mask-2)"></path>
            </g>
            <path d="M27.799,20.508 C15.269,21.483 12.543,19.884 12.616,11.858 C10.508,12.531 8.136,13.901 6.979,10.743 C6.724,10.047 7.644,8.921 8.023,7.993 C8.399,9.242 8.154,10.154 8.38,10.928 C8.472,11.243 9.915,11.599 10.176,11.347 C10.962,10.588 12.026,9.512 11.98,8.61 C11.861,6.243 10.567,4.498 7.883,4.58 C5.08,4.665 3.162,6.272 3.2,8.988 C3.23,11.068 4.344,13.133 4.843,14.767 C3.926,15.713 2.177,16.714 2.182,17.707 C2.189,19.112 3.155,20.942 4.301,21.831 C7.496,24.31 10.851,22.824 14.051,21.361 C14.959,25.394 22.396,24.984 27.799,20.508" id="Fill-4" fill="#1A1918" sketch:type="MSShapeGroup"></path>
            <path d="M18.422,7.064 C17.594,8.789 16.996,10.033 16.398,11.277 C17.8,11.906 19.343,13.223 20.566,12.974 C21.865,12.708 23.788,10.958 23.789,9.855 C23.79,7.837 23.008,4.426 21.792,4.049 C17.294,2.652 12.484,2.257 7.792,1.486 C7.661,1.923 7.531,2.361 7.4,2.798 C11.338,3.385 13.443,5.56 13.423,9.241 C15.227,8.455 16.939,7.71 18.422,7.064" id="Fill-5" fill="#1A1918" sketch:type="MSShapeGroup"></path>
            <path d="M27.799,20.508 C22.396,24.984 14.959,25.394 14.051,21.361 C10.851,22.824 7.496,24.31 4.301,21.831 C3.155,20.942 2.189,19.112 2.182,17.707 C2.177,16.714 3.926,15.713 4.843,14.767 C4.344,13.133 3.23,11.068 3.2,8.988 C3.162,6.272 5.08,4.665 7.883,4.58 C10.567,4.498 11.861,6.243 11.98,8.61 C12.026,9.512 10.962,10.588 10.176,11.347 C9.915,11.599 8.472,11.243 8.38,10.928 C8.154,10.154 8.399,9.242 8.023,7.993 C7.644,8.921 6.724,10.047 6.979,10.743 C8.136,13.901 10.508,12.531 12.616,11.858 C12.543,19.884 15.269,21.483 27.799,20.508" id="Fill-6" fill="#FFFFFF" sketch:type="MSShapeGroup"></path>
            <path d="M18.422,7.064 C16.939,7.71 15.227,8.455 13.423,9.241 C13.443,5.56 11.338,3.385 7.4,2.798 C7.531,2.361 7.661,1.923 7.792,1.486 C12.484,2.257 17.294,2.652 21.792,4.049 C23.008,4.426 23.79,7.837 23.789,9.855 C23.788,10.958 21.865,12.708 20.566,12.974 C19.343,13.223 17.8,11.906 16.398,11.277 C16.996,10.033 17.594,8.789 18.422,7.064" id="Fill-7" fill="#FFFFFF" sketch:type="MSShapeGroup"></path>
        </g>
    </g>
</svg>